<svg width="770" height="728" viewBox="0 0 770 728" fill="none" xmlns="http://www.w3.org/2000/svg">
<g clip-path="url(#clip0_4782_156472)">
<path opacity="0.34" d="M390.177 31.9621C401.825 34.3515 413.715 36.3848 425.811 38.0046C437.907 38.6249 450.222 38.8661 462.652 38.8317C475.069 38.062 487.556 37.3268 499.986 36.7984C512.266 36.1091 524.339 36.0057 536.022 36.6605C547.326 37.6944 557.975 39.7621 567.739 42.9212C576.814 46.758 584.741 51.7666 591.3 57.8894C596.952 64.713 601.099 72.5475 603.718 81.255C605.567 90.4794 606.119 100.37 605.613 110.801C605.108 121.473 604.258 132.478 603.557 143.69C604.132 154.913 605.843 166.217 609.163 177.543C614.884 188.709 622.799 199.863 632.965 210.96C645.464 221.862 659.662 232.729 674.964 243.585C690.736 254.257 705.899 264.963 719.386 275.738C730.574 286.376 738.329 297.14 741.947 308.064C741.706 318.908 737.122 329.959 728.587 341.229C717.663 352.475 704.739 363.974 691.161 375.726C679.019 387.466 669.093 399.183 662.235 410.843C659.363 422.48 660.041 434.025 663.867 445.386C670.782 456.689 679.237 467.74 688.128 478.458C697.146 489.004 704.544 499.09 709.518 508.613C712.137 517.826 711.39 526.338 707.232 534.035C700.282 541.318 690.38 547.671 678.123 553.035C664.257 557.963 649.186 561.915 633.574 564.89C617.962 567.613 602.776 569.554 588.382 570.864C575.022 572.346 562.822 573.586 551.783 574.838C542.019 576.906 533.242 579.479 525.27 582.822C518.24 587.578 511.634 593.483 505.213 600.628C499.274 609.381 493.174 619.352 486.741 630.358C480.446 642.419 473.622 654.918 466.178 667.382C458.711 679.627 450.567 690.828 441.733 700.42C432.841 708.312 423.272 713.699 413.071 716.215C402.813 716.238 391.957 713.217 380.539 707.266C369.109 699.374 357.426 689.587 345.559 678.582C333.727 667.405 321.734 656.239 309.661 645.693C297.668 636.561 285.641 628.818 273.648 622.672C261.804 618.594 250.087 616.125 238.588 615.068C227.33 615.711 216.417 617.181 205.94 619.1C195.843 621.73 186.308 624.062 177.451 625.751C169.054 627.175 161.392 627.405 154.522 626.291C148.078 624.304 142.369 620.777 137.371 615.757C132.57 609.737 128.273 602.328 124.414 593.689C120.335 584.258 116.407 573.851 112.49 562.673C107.998 551.025 103.322 538.86 98.4058 526.384C92.7999 513.69 86.9758 500.859 81.0367 488.004C74.6727 475.127 68.4809 462.33 62.6567 449.682C56.9934 437.069 52.0882 424.639 48.1825 412.44C44.943 400.274 42.9212 388.316 42.209 376.599C42.232 364.904 43.4496 353.417 45.7356 342.171C48.2859 330.913 51.4105 320.149 54.8567 309.868C57.8779 299.563 60.8417 289.719 63.6447 280.356C65.6894 270.948 67.5274 261.988 69.2276 253.464C70.3534 244.883 71.617 236.692 73.1793 228.881C74.6956 220.931 76.8897 213.292 79.888 205.906C83.3457 198.29 87.8488 190.823 93.4088 183.448C99.6465 175.717 106.918 167.963 115.109 160.151C123.862 151.857 133.339 143.414 143.379 134.81C153.638 125.723 164.218 116.476 174.982 107.125C185.653 97.4409 196.337 87.7914 206.974 78.3027C217.324 68.814 227.583 59.7389 237.749 51.2841C247.571 43.2428 257.37 36.1091 267.157 30.0437C276.669 24.7595 286.272 20.7503 296.037 18.0852C305.594 16.2702 315.405 15.7647 325.514 16.4885C335.508 17.7636 345.858 19.9577 356.622 22.887C367.34 25.7129 378.517 28.8145 390.165 31.9621" stroke="#5A42ED" stroke-width="2" stroke-linecap="round" stroke-dasharray="2 5"/>
<path opacity="0.17" d="M418.409 47.1242C429.576 50.2852 440.89 53.1457 452.311 55.6222C463.811 57.1599 475.395 58.3236 486.974 59.222C498.559 59.3838 510.042 59.5384 521.296 59.8151C532.36 59.8595 543 60.3691 553.042 61.5045C562.665 62.8751 571.431 65.118 579.19 68.2686C586.263 71.9812 592.114 76.7014 596.618 82.3861C600.377 88.686 602.794 95.8815 603.91 103.883C604.575 112.395 604.296 121.565 603.346 131.275C602.739 141.332 602.183 151.807 602.111 162.615C603.499 173.619 606.147 184.873 610.462 196.337C616.981 207.899 625.458 219.622 635.839 231.457C648.074 243.296 661.525 255.198 675.585 267.108C689.678 278.894 702.83 290.625 714.102 302.235C723.055 313.577 728.668 324.764 730.414 335.747C728.681 346.427 723.02 356.956 713.844 367.363C702.594 377.613 689.58 387.899 675.972 398.269C663.682 408.745 653.337 419.231 645.719 429.748C641.69 440.485 640.871 451.263 642.994 461.974C648.066 472.823 654.767 483.442 662.162 493.684C670.015 503.808 676.76 513.314 681.623 522.075C684.683 530.445 684.859 537.897 682.044 544.331C676.719 550.254 668.589 555.139 658.106 558.947C645.877 562.356 632.194 564.821 617.638 566.442C602.664 567.964 587.706 568.911 573.144 569.484C559.177 570.432 546.049 571.405 533.837 572.615C522.594 574.792 512.225 577.618 502.625 581.305C493.836 586.396 485.522 592.58 477.496 599.902C469.945 608.662 462.381 618.412 454.67 628.946C447.142 640.31 439.29 651.859 431.03 663.149C422.863 674.1 414.249 683.89 405.187 692.026C396.216 698.544 386.839 702.66 377.056 704.054C367.421 703.178 357.41 699.476 347.064 693.022C336.841 684.815 326.492 674.813 316.065 663.632C305.677 652.223 295.181 640.714 284.596 629.648C274.018 619.803 263.369 611.105 252.726 603.8C242.112 598.363 231.579 594.395 221.25 591.765C211.058 590.792 201.194 590.717 191.783 591.239C182.681 592.611 174.157 593.944 166.325 594.934C155.543 595.957 138.345 592.106 131.781 586.552C127.722 581.578 124.144 575.326 120.926 567.901C117.44 559.697 114.048 550.498 110.646 540.457C106.673 529.858 102.513 518.636 98.1457 506.938C93.1322 494.929 87.9653 482.645 82.7501 470.231C77.1877 457.677 71.8668 445.129 66.9773 432.668C62.294 420.223 58.4048 407.948 55.5126 395.905C53.3056 383.945 52.2896 372.242 52.5416 360.848C53.5376 349.517 55.6642 338.485 58.8066 327.744C62.2348 317.034 66.1691 306.821 70.3903 297.111C74.2129 287.339 77.9581 278.011 81.4883 269.116C84.2778 260.112 86.8205 251.505 89.1416 243.262C90.861 234.896 92.6143 226.867 94.5634 219.162C96.3864 211.287 98.7424 203.691 101.785 196.317C105.223 188.729 109.595 181.287 114.938 173.961C120.948 166.312 127.982 158.69 135.95 151.042C144.544 143.012 153.926 134.911 163.971 126.707C174.388 118.149 185.235 109.518 196.383 100.874C207.579 92.0253 218.894 83.3007 230.236 74.8428C241.4 66.4644 252.483 58.5755 263.46 51.3587C274.141 44.6045 284.722 38.7646 295.193 33.9994C305.369 29.9736 315.505 27.177 325.619 25.6688C335.517 24.9398 345.479 25.4246 355.577 27.0821C365.527 29.1899 375.704 32.1773 386.131 35.8504C396.545 39.3958 407.284 43.2176 418.398 47.1234" stroke="#5A42ED" stroke-width="2" stroke-linecap="round" stroke-dasharray="5 9"/>
<path opacity="0.55" d="M442.063 64.2609C452.615 68.149 463.209 71.7415 473.82 74.9651C484.533 77.3098 495.205 79.2889 505.768 80.9741C516.338 81.9526 526.654 82.8485 536.581 83.7821C546.342 84.4136 555.521 85.3803 563.962 86.8107C575.535 89.4746 592.614 99.1162 597.705 106.325C600.144 111.95 601.435 118.387 601.691 125.571C601.794 133.267 601.265 141.65 600.399 150.612C600.15 160.044 600.211 169.996 600.98 180.432C603.24 191.242 606.795 202.49 611.922 214.102C618.978 226.021 627.697 238.247 637.913 250.708C649.514 263.308 661.877 276.016 674.402 288.724C686.62 301.307 697.634 313.708 706.648 325.813C713.375 337.523 716.949 348.798 716.948 359.588C713.848 369.904 707.248 379.78 697.538 389.25C686.088 398.473 673.083 407.534 659.558 416.578C647.206 425.778 636.59 435.015 628.387 444.327C623.361 454.068 621.251 463.944 621.843 473.832C625.218 484.058 630.266 494.103 636.201 503.787C642.862 513.423 648.862 522.408 653.507 530.551C657.292 541.647 649.232 557.558 637.452 562.326C627.051 564.724 615.05 566.223 601.918 566.946C588.045 567.657 573.804 567.932 559.56 567.987C545.499 568.544 531.891 569.269 518.898 570.394C506.528 572.537 494.828 575.424 483.77 579.191C473.31 584.297 463.331 590.434 453.673 597.579C444.428 605.978 435.301 615.182 426.183 624.98C417.304 635.38 408.298 645.774 399.128 655.773C390.151 665.313 380.983 673.664 371.642 680.368C362.53 685.548 353.288 688.448 343.92 688.812C334.84 687.14 325.646 682.841 316.346 676.021C307.273 667.598 298.251 657.51 289.262 646.291C280.358 634.805 271.398 623.137 262.419 611.768C253.377 601.411 244.268 592.019 235.165 583.811C225.987 577.276 216.876 572.061 207.925 568.098C199.004 565.718 190.379 564.273 182.179 563.515C170.429 563.9 150.421 564.75 142.408 563.821C135.419 561.401 124.495 550.162 120.01 541.218C116.811 534.162 113.696 526.109 110.556 517.17C106.873 507.643 103.048 497.4 99.0716 486.591C94.5471 475.39 89.9507 463.796 85.3753 451.973C80.5837 439.957 76.0812 427.866 72.0839 415.812C68.3547 403.749 65.4509 391.839 63.5448 380.174C62.3211 368.607 62.2739 357.334 63.4422 346.408C65.3254 335.594 68.2892 325.097 72.2361 314.948C76.4447 304.836 81.1264 295.233 86.0426 286.103C90.5979 276.899 95.053 268.075 99.2922 259.627C102.8 251.017 106.031 242.727 108.998 234.736C111.344 226.553 113.639 218.641 116.027 210.974C118.221 203.117 120.837 195.483 124.013 188.067C127.489 180.416 131.799 172.94 136.985 165.589C142.788 157.978 149.565 150.447 157.279 142.945C165.621 135.183 174.809 127.426 184.704 119.676C195.062 111.69 205.946 103.756 217.222 95.924C228.66 88.0104 240.31 80.3241 252.034 73.0081C263.689 65.8563 275.286 59.2763 286.783 53.4016C298.037 48.0144 309.135 43.5566 320.051 40.1403C330.68 37.4374 341.146 35.8833 351.475 35.5396C361.565 35.8931 371.575 37.3838 381.551 39.937C391.402 42.8787 401.315 46.6065 411.334 50.976C421.35 55.2058 431.586 59.6871 442.041 64.2577" stroke="#5A42ED" stroke-width="2" stroke-linecap="round" stroke-dasharray="7 9"/>
<path opacity="0.72" d="M460.506 82.5369C470.35 87.0359 480.111 91.2588 489.763 95.1174C499.571 98.1401 509.233 100.802 518.647 103.141C528.118 104.776 537.22 106.272 545.829 107.71C554.304 108.789 562.111 110.078 569.102 111.662C578.608 114.338 591.856 123.01 595.426 129.311C597.495 137.075 597.814 157.035 597.336 169.164C597.761 178.02 598.653 187.541 600.358 197.659C603.474 208.315 607.817 219.552 613.529 231.306C620.851 243.5 629.471 256.101 639.2 269.012C649.847 282.131 660.861 295.353 671.663 308.517C681.875 321.531 690.699 334.224 697.494 346.458C702.074 358.18 703.724 369.262 702.147 379.615C697.834 389.357 690.442 398.45 680.35 406.927C668.797 415.092 655.911 422.958 642.563 430.677C630.281 438.626 619.52 446.608 610.882 454.716C605.059 463.394 601.826 472.264 601.082 481.257C602.913 490.732 606.412 500.096 610.964 509.157C616.416 518.294 621.595 526.785 625.88 534.461C630.02 544.89 625.44 559.381 616.294 563.397C607.763 565.313 597.57 566.332 586.059 566.644C573.572 566.959 560.401 566.903 546.88 566.726C533.156 567.057 519.522 567.63 506.173 568.676C493.074 570.692 480.402 573.458 468.179 577.083C456.343 581.92 444.892 587.698 433.758 594.354C422.951 602.055 412.345 610.411 401.886 619.174C391.675 628.366 381.541 637.422 371.479 645.977C361.68 654.024 351.962 660.867 342.325 666.129C333.051 669.977 323.913 671.716 314.931 671.138C306.345 668.718 297.905 663.922 289.606 656.829C281.624 648.312 273.858 638.243 266.294 627.125C258.817 615.709 251.402 604.059 244.016 592.604C236.549 581.965 229.064 572.121 221.584 563.289C213.945 555.915 206.356 549.726 198.906 544.695C191.355 541.123 184.058 538.499 177.127 536.635C167.024 535.476 149.652 534.412 142.61 533.229C136.268 531.08 126.061 521.603 121.721 513.962C118.563 507.879 115.483 500.826 112.416 492.895C108.844 484.361 105.199 475.072 101.478 465.155C97.3293 454.818 93.2013 444.003 89.1969 432.886C85.074 421.556 81.3563 410.089 78.1817 398.609C75.3498 387.121 73.3698 375.769 72.3847 364.654C72.0894 353.664 72.9278 342.976 74.9325 332.655C77.6135 322.469 81.335 312.635 85.9798 303.152C90.8854 293.713 96.228 284.756 101.783 276.232C107.006 267.613 112.123 259.324 117.012 251.327C121.229 243.127 125.147 235.168 128.765 227.403C131.773 219.413 134.671 211.611 137.565 203.985C140.225 196.143 143.188 188.473 146.597 180.969C150.2 173.271 154.534 165.73 159.645 158.345C165.279 150.766 171.826 143.313 179.252 135.978C187.291 128.47 196.174 121.084 205.794 113.82C215.906 106.451 226.604 99.2554 237.736 92.2817C249.129 85.3522 260.787 78.7735 272.561 72.6425C284.358 66.7868 296.128 61.548 307.786 57.0489C319.274 53.0656 330.568 49.9921 341.63 47.9382C352.433 46.5453 362.994 46.2282 373.301 47.0319C383.382 48.4564 393.268 50.8966 402.994 54.3012C412.591 58.0306 422.131 62.4644 431.643 67.4679C441.177 72.3117 450.78 77.3818 460.484 82.5321" stroke="#5A42ED" stroke-width="2" stroke-linecap="round" stroke-dasharray="11 2"/>
<path opacity="0.09" d="M473.607 101.026C482.641 106.047 491.496 110.778 500.136 115.136C508.978 118.714 517.569 121.921 525.844 124.774C534.208 126.946 542.135 128.896 549.514 130.712C560.137 132.893 577.177 137.938 583.239 141.369C587.914 145.666 592.593 158.001 593.213 166.218C593.711 172.51 594.06 179.56 594.536 187.328C595.804 195.745 597.63 204.921 600.255 214.807C604.138 225.345 609.07 236.557 615.117 248.38C622.427 260.712 630.668 273.505 639.624 286.637C649.083 299.975 658.559 313.377 667.52 326.654C675.685 339.712 682.359 352.339 687.028 364.336C689.619 375.743 689.53 386.326 686.553 396.024C681.206 405.023 673.202 413.205 662.867 420.64C651.318 427.722 638.652 434.409 625.596 440.876C613.477 447.614 602.705 454.371 593.789 461.284C587.332 468.873 583.182 476.713 581.273 484.747C581.73 493.407 583.81 502.035 587.028 510.454C591.275 519.076 595.554 527.133 599.309 534.441C603.464 544.495 601.59 558.555 594.762 562.473C587.976 564.346 579.53 565.343 569.699 565.676C558.739 565.98 546.849 565.944 534.322 565.794C521.29 566.108 508.021 566.664 494.711 567.651C481.337 569.517 468.114 572.06 455.132 575.378C442.29 579.742 429.731 584.906 417.434 590.815C405.349 597.562 393.515 604.802 381.915 612.312C370.583 620.091 359.471 627.648 348.628 634.648C338.126 641.089 327.929 646.399 318.068 650.215C308.651 652.749 299.623 653.362 291.006 651.894C282.874 648.796 275.13 643.574 267.767 636.297C260.774 627.74 254.177 617.816 247.938 606.906C241.807 595.705 235.851 584.231 230.029 572.869C224.089 562.166 218.175 552.116 212.301 542.915C206.198 534.963 200.139 528.052 194.188 522.214C185.033 515.877 167.809 508.662 160.106 506.764C146.677 503.662 130.485 493.254 125.994 486.546C122.71 481.205 119.524 474.948 116.38 467.842C112.789 460.175 109.215 451.748 105.663 442.67C101.78 433.161 98.0385 423.166 94.541 412.824C91.0239 402.261 87.9982 391.529 85.5817 380.758C83.5691 369.997 82.4192 359.354 82.2704 348.93C82.7933 338.664 84.4259 328.696 87.1776 319.076C90.566 309.653 94.9489 300.553 100.203 291.79C105.711 283.101 111.622 274.839 117.736 266.947C123.555 258.957 129.276 251.226 134.779 243.707C139.667 235.962 144.251 228.356 148.549 220.871C152.232 213.112 155.767 205.453 159.242 197.92C162.43 190.137 165.823 182.473 169.556 174.956C173.394 167.241 177.831 159.689 182.94 152.295C188.476 144.785 194.823 137.451 201.978 130.303C209.686 123.1 218.184 116.102 227.404 109.338C237.116 102.608 247.418 96.1563 258.177 90.0647C269.226 84.1288 280.576 78.6391 292.09 73.6991C303.661 69.0985 315.237 65.1813 326.712 62.0242C338.057 59.4031 349.214 57.6729 360.083 56.8994C370.744 56.7594 381.103 57.6203 391.146 59.4899C400.982 61.9095 410.544 65.2306 419.832 69.4169C429.024 73.8506 438.049 78.9054 446.929 84.4568C455.857 89.8426 464.734 95.4049 473.596 101.022" stroke="#5A42ED" stroke-width="2" stroke-linecap="round" stroke-dasharray="10 7"/>
<path opacity="0.07" d="M481.748 118.962C489.9 124.385 497.8 129.495 505.425 134.222C513.282 138.251 520.824 141.871 528.008 145.102C538.777 148.868 557.718 154.711 565.502 157.306C577.081 163.463 586.853 178.124 588.278 185.662C589.478 191.514 590.684 198.151 592.101 205.576C594.294 213.69 597.028 222.628 600.453 232.346C604.934 242.759 610.245 253.906 616.388 265.689C623.415 277.993 631.028 290.77 638.984 303.845C647.124 317.085 654.955 330.334 662.059 343.364C668.219 356.096 672.852 368.29 675.562 379.753C676.361 390.524 674.756 400.375 670.598 409.213C664.421 417.32 655.96 424.513 645.53 430.872C634.118 436.87 621.761 442.409 609.1 447.678C597.248 453.244 586.572 458.839 577.538 464.597C570.599 471.114 565.693 477.927 562.811 484.994C562.033 492.798 562.823 500.666 564.775 508.435C567.803 516.538 571.107 524.192 574.217 531.211C577.961 548.281 564.216 562.65 552.526 564.016C543.086 564.655 532.567 564.934 521.194 565.071C509.102 565.567 496.495 566.229 483.573 567.252C470.326 568.988 456.997 571.281 443.682 574.203C430.315 577.964 417.077 582.371 404.029 587.363C391.091 592.983 378.394 598.948 365.998 605.061C353.838 611.297 342.039 617.25 330.65 622.619C319.635 627.441 309.125 631.187 299.148 633.588C289.686 634.819 280.821 634.36 272.587 632.053C264.899 628.331 257.799 622.744 251.282 615.34C245.184 606.829 239.654 597.108 234.612 586.525C229.696 575.634 225.075 564.472 220.678 553.368C216.142 542.776 211.694 532.706 207.323 523.362C202.654 515.059 198.03 507.666 193.497 501.224C186.256 493.725 172.251 483.982 165.738 480.924C153.534 476.3 137.528 465.576 132.733 459.38C129.248 454.512 125.862 448.811 122.566 442.334C118.907 435.345 115.343 427.632 111.9 419.291C108.251 410.579 104.835 401.366 101.776 391.782C98.7974 382.045 96.3814 372.11 94.6535 362.135C93.3534 352.195 92.9548 342.366 93.539 332.728C94.7819 323.295 97.0915 314.157 100.471 305.338C104.453 296.742 109.375 288.455 115.138 280.477C121.138 272.586 127.527 265.071 134.12 257.863C140.458 250.55 146.714 243.427 152.789 236.432C158.296 229.181 163.533 222.001 168.485 214.863C172.85 207.423 177.048 200.007 181.138 192.65C184.902 185.014 188.805 177.466 192.942 170.016C197.095 162.388 201.715 154.92 206.897 147.622C212.398 140.257 218.589 133.11 225.475 126.206C232.835 119.342 240.91 112.766 249.643 106.529C258.804 100.426 268.538 94.7291 278.72 89.4786C289.195 84.4952 299.963 80.0478 310.897 76.2124C321.935 72.7946 332.976 70.1001 343.927 68.1806C354.789 66.8036 365.453 66.2963 375.832 66.6997C386.021 67.6824 395.899 69.5787 405.415 72.3942C414.745 75.6801 423.762 79.7813 432.434 84.6242C441.034 89.6612 449.399 95.2361 457.516 101.221C465.721 107.031 473.788 112.986 481.737 118.958" stroke="#5A42ED" stroke-width="2" stroke-linecap="round" stroke-dasharray="7 3"/>
<path opacity="0.24" d="M485.724 135.778C492.953 141.49 499.892 146.869 506.537 151.864C513.434 156.217 520.021 160.166 526.237 163.708C535.64 167.979 552.183 174.634 559.065 177.481C569.93 183.708 580.872 197.769 583.432 204.981C585.487 210.631 587.609 217.054 589.98 224.294C593.033 232.233 596.546 241.021 600.607 250.61C605.476 260.865 610.915 271.868 616.898 283.482C623.431 295.582 630.222 308.088 637.053 320.84C643.76 333.673 649.944 346.436 655.247 358.889C659.537 370.962 662.315 382.418 663.276 393.043C662.537 402.939 659.644 411.854 654.553 419.691C647.752 426.795 639.018 432.929 628.651 438.214C617.478 443.136 605.535 447.585 593.342 451.72C581.857 456.186 571.392 460.683 562.338 465.375C555.074 470.848 549.593 476.669 545.877 482.795C544.035 489.739 543.635 496.84 544.386 503.956C546.226 511.538 548.486 518.804 550.792 525.6C554.212 542.963 543.996 559.301 534.325 561.586C526.266 562.808 517.076 563.633 506.899 564.242C495.89 565.105 484.164 566.024 471.921 567.163C459.166 568.828 446.107 570.885 432.888 573.412C419.457 576.548 406.024 580.138 392.684 584.134C379.363 588.567 366.254 593.198 353.471 597.861C340.9 602.531 328.746 606.86 317.114 610.618C305.892 613.829 295.288 616.059 285.371 617.099C276.013 617.094 267.407 615.613 259.58 612.542C252.341 608.25 245.855 602.343 240.117 594.884C234.818 586.451 230.233 576.992 226.236 566.789C222.385 556.287 218.935 545.537 215.78 534.806C212.475 524.461 209.322 514.538 206.275 505.216C202.897 496.741 199.556 489.051 196.255 482.198C190.74 473.768 179.568 461.759 174.102 457.559C168.329 454.292 157.428 447.809 152.299 443.811C146.853 438.978 136.261 425.541 131.046 416.781C127.322 410.279 123.766 403.122 120.44 395.401C116.992 387.361 113.887 378.869 111.235 370.041C108.733 361.104 106.873 352.001 105.745 342.839C105.074 333.781 105.306 324.815 106.529 316.055C108.368 307.522 111.245 299.256 115.139 291.309C119.592 283.6 124.952 276.174 131.114 269.034C137.491 261.978 144.262 255.251 151.238 248.767C157.999 242.173 164.714 235.71 171.287 229.309C177.351 222.641 183.178 215.967 188.752 209.268C193.778 202.246 198.624 195.206 203.344 188.134C207.705 180.8 212.139 173.499 216.73 166.269C221.236 158.862 226.119 151.599 231.425 144.514C236.931 137.406 242.997 130.538 249.652 123.984C256.649 117.51 264.273 111.406 272.453 105.716C281.003 100.243 290.04 95.2535 299.474 90.8085C309.174 86.6973 319.145 83.187 329.272 80.3644C339.479 77.9807 349.712 76.3518 359.853 75.5133C369.928 75.2122 379.802 75.7522 389.406 77.1413C398.842 79.0719 407.963 81.8431 416.715 85.4313C425.32 89.4317 433.568 94.1407 441.467 99.4861C449.305 104.993 456.869 110.943 464.142 117.229C471.517 123.347 478.705 129.569 485.713 135.773" stroke="#5A42ED" stroke-width="2" stroke-linecap="round" stroke-dasharray="7 2"/>
<path opacity="0.63" d="M486.599 151.277C492.904 157.161 498.931 162.712 504.656 167.88C513.517 174.59 530.046 185.231 537.528 189.386C550.998 195.968 566.948 206.545 570.951 211.372C575.013 217.328 583.187 233.387 587.882 243.792C591.651 251.65 595.734 260.33 600.194 269.787C605.208 279.841 610.555 290.583 616.153 301.878C622.028 313.557 627.877 325.574 633.49 337.738C638.785 349.887 643.386 361.872 647.012 373.463C649.603 384.601 650.76 395.059 650.236 404.639C648.214 413.465 644.311 421.278 638.527 428.028C631.316 434.036 622.493 439.112 612.314 443.315C601.507 447.206 590.057 450.62 578.42 453.726C567.375 457.162 557.212 460.656 548.256 464.356C540.792 468.846 534.859 473.715 530.462 478.954C526.952 488.219 527.09 508.33 529.067 518.329C531.175 528.085 531.565 544.092 528.679 550.014C523.094 554.77 504.109 560.888 491.083 562.868C481.174 564.216 470.456 565.493 459.062 566.838C447.077 568.53 434.634 570.419 421.88 572.571C408.815 575.13 395.625 577.947 382.458 580.986C369.233 584.281 356.181 587.616 343.44 590.884C330.887 594.044 318.781 596.832 307.248 599.067C296.131 600.769 285.699 601.588 276.064 601.361C266.985 600.221 258.757 597.816 251.427 594.055C244.678 589.263 238.798 583.099 233.769 575.62C229.197 567.316 225.416 558.146 222.311 548.375C219.37 538.301 216.897 528.009 214.784 517.728C212.524 507.721 210.455 498.037 208.525 488.872C206.22 480.353 203.963 472.499 201.725 465.36C197.687 456.183 188.964 442.137 184.376 436.773C179.225 432.332 168.866 423.85 163.698 419.126C158.116 413.814 147.12 400.163 141.773 391.651C138.052 385.449 134.574 378.699 131.399 371.46C128.179 363.988 125.397 356.139 123.142 348.012C121.1 339.83 119.735 331.53 119.151 323.207C119.016 315.021 119.792 306.959 121.549 299.086C123.869 291.477 127.183 284.129 131.495 277.083C136.299 270.288 141.963 263.761 148.411 257.473C155.062 251.294 162.106 245.378 169.354 239.664C176.436 233.847 183.511 228.092 190.498 222.354C197.03 216.346 203.374 210.276 209.505 204.143C215.126 197.671 220.57 191.116 225.897 184.512C230.842 177.624 235.792 170.726 240.839 163.866C245.737 156.848 250.882 149.951 256.341 143.248C261.893 136.516 267.868 130.065 274.296 123.936C280.952 117.942 288.104 112.358 295.71 107.241C303.564 102.388 311.829 98.0814 320.432 94.3608C329.217 91.0261 338.235 88.3511 347.376 86.3941C356.575 84.8861 365.792 84.1444 374.898 84.1909C383.953 84.7447 392.819 86.11 401.419 88.2846C409.877 90.9432 418.039 94.369 425.835 98.524C433.507 103.03 440.842 108.163 447.816 113.846C454.76 119.656 461.416 125.832 467.776 132.293C474.254 138.583 480.524 144.943 486.589 151.272" stroke="#5A42ED" stroke-width="2" stroke-linecap="round"/>
<path opacity="0.95" d="M485.576 165.589C490.98 171.55 496.138 177.192 501.048 182.474C508.727 189.48 523.266 200.962 530.016 205.613C536.776 209.604 548.868 217.091 554.212 221.084C559.52 225.543 569.396 237.134 574.294 244.691C577.905 250.455 581.582 256.955 585.411 264.203C589.636 272.028 594.054 280.6 598.655 289.873C603.593 299.644 608.621 310.002 613.666 320.807C618.74 331.888 623.571 343.181 627.963 354.524C631.912 365.75 635.056 376.724 637.178 387.228C638.319 397.221 638.107 406.493 636.379 414.875C633.349 422.501 628.709 429.148 622.465 434.741C615.062 439.654 606.32 443.652 596.456 446.845C586.11 449.748 575.241 452.21 564.199 454.386C553.672 456.888 543.886 459.464 535.109 462.272C524.432 467.846 511.565 482.298 508.925 490.918C508.497 500.597 509.774 519.743 510.011 528.457C509.066 536.504 501.58 549.045 494.563 553.605C488.607 556.294 481.592 558.53 473.574 560.417C464.724 562.308 455.026 564.016 444.608 565.635C433.56 567.413 421.967 569.214 409.985 571.094C397.637 573.164 385.08 575.307 372.477 577.501C359.784 579.774 347.213 581.962 334.924 583.961C322.812 585.786 311.14 587.197 300.054 588.068C289.361 588.425 279.388 587.988 270.245 586.649C261.64 584.521 253.934 581.318 247.163 576.98C240.986 571.767 235.709 565.411 231.347 557.975C227.43 549.815 224.35 540.974 221.997 531.629C219.807 522.006 218.126 512.201 216.837 502.4C215.427 492.768 214.234 483.395 213.175 474.433C211.777 465.964 210.402 458.039 209.009 450.7C206.194 440.926 199.551 425.02 195.74 418.517C191.191 412.838 181.484 402.075 176.419 396.438C170.869 390.385 159.877 375.981 154.616 367.473C151.007 361.425 147.706 354.932 144.769 348.058C141.851 341.046 139.436 333.755 137.59 326.252C135.983 318.779 135.095 311.244 135.002 303.722C135.346 296.409 136.583 289.212 138.768 282.234C141.476 275.547 145.134 269.121 149.729 262.975C154.767 257.095 160.634 251.454 167.261 246.05C174.069 240.747 181.252 235.667 188.681 230.757C195.961 225.738 203.29 220.751 210.574 215.748C217.465 210.484 224.227 205.125 230.805 199.648C236.929 193.858 242.9 187.943 248.729 181.953C254.191 175.662 259.63 169.342 265.092 163.051C270.339 156.584 275.751 150.221 281.356 144.047C286.954 137.842 292.848 131.92 299.054 126.344C305.38 120.899 312.055 115.892 319.067 111.384C326.232 107.149 333.701 103.487 341.411 100.454C349.222 97.7969 357.203 95.8182 365.265 94.5705C373.344 93.7685 381.403 93.7288 389.365 94.4434C397.252 95.6411 404.964 97.6111 412.42 100.33C419.765 103.481 426.817 107.331 433.535 111.84C440.154 116.653 446.472 122.009 452.44 127.851C458.405 133.786 464.1 140.04 469.513 146.523C475.06 152.86 480.402 159.244 485.566 165.583" stroke="#5A42ED" stroke-width="2" stroke-linecap="round" stroke-dasharray="3 1"/>
<path opacity="0.6" d="M483.748 179.199C488.307 185.137 492.67 190.817 496.844 196.172C503.491 203.419 516.373 215.741 522.568 220.987C528.955 225.661 541.004 234.659 546.689 239.415C552.523 244.608 563.886 257.481 569.617 265.509C573.716 271.508 577.833 278.162 582.008 285.473C586.445 293.261 590.929 301.683 595.421 310.696C600.058 320.072 604.592 329.9 608.946 340.067C613.155 350.355 616.947 360.764 620.175 371.086C622.88 381.208 624.736 390.991 625.57 400.263C625.505 408.974 624.195 416.954 621.536 424.054C617.788 430.424 612.657 435.862 606.185 440.313C598.787 444.124 590.278 447.117 580.85 449.363C571.055 451.353 560.822 452.949 550.444 454.296C540.485 455.965 531.131 457.723 522.588 459.736C511.835 464.073 497.327 476.145 493.296 483.733C491.252 492.556 489.539 510.809 488.668 519.568C487.07 527.978 479.616 542.018 473.23 547.573C467.918 550.952 461.646 553.852 454.483 556.354C446.578 558.779 437.857 560.918 428.413 562.838C418.385 564.756 407.795 566.546 396.786 568.227C385.412 569.938 373.785 571.549 362.057 573.044C350.24 574.486 338.513 575.709 327.031 576.657C315.701 577.36 304.796 577.62 294.452 577.351C284.486 576.59 275.218 575.131 266.766 572.874C258.843 569.937 251.792 566.087 245.683 561.305C240.127 555.773 235.481 549.315 231.732 541.948C228.429 533.995 225.968 525.479 224.228 516.566C222.655 507.406 221.607 498.076 220.97 488.748C220.217 479.521 219.698 470.48 219.326 461.762C218.622 453.398 217.941 445.45 217.233 437.982C215.435 427.714 210.568 410.123 207.493 402.539C203.576 395.632 194.754 382.504 189.984 375.826C184.716 368.896 174.265 353.427 169.326 344.77C166.003 338.743 163.012 332.419 160.417 325.83C157.895 319.18 155.891 312.369 154.492 305.434C153.132 295.19 154.865 275.339 158.22 266.055C161.224 260.249 165.131 254.71 169.911 249.456C175.085 244.463 181.041 239.705 187.721 235.165C194.568 230.748 201.788 226.52 209.274 222.417C216.642 218.241 224.1 214.06 231.552 209.846C238.672 205.387 245.708 200.81 252.612 196.121C259.104 191.101 265.48 185.966 271.717 180.73C277.589 175.195 283.405 169.62 289.196 164.041C294.746 158.284 300.368 152.623 306.091 147.136C311.701 141.609 317.499 136.349 323.496 131.42C329.486 126.615 335.708 122.252 342.137 118.383C348.612 114.762 355.282 111.727 362.103 109.302C368.938 107.245 375.876 105.862 382.832 105.191C389.759 104.927 396.64 105.385 403.396 106.593C410.076 108.216 416.578 110.563 422.834 113.614C428.99 117.033 434.89 121.091 440.487 125.754C446.006 130.658 451.239 136.066 456.192 141.895C461.154 147.787 465.874 153.972 470.36 160.356C474.974 166.606 479.432 172.912 483.739 179.192" stroke="#5A42ED" stroke-width="2" stroke-linecap="round" stroke-dasharray="10 7"/>
<path opacity="0.15" d="M481.978 192.76C487.575 201.461 498.649 217.145 504.195 224.098C512.444 232.22 520.294 239.745 527.735 247.043C536.201 254.022 544.217 261.795 551.906 270.858C560.496 280.899 568.897 293.042 577.153 307.339C586.002 323.015 594.326 340.583 601.589 359.255C607.907 377.922 611.702 396.115 611.994 412.504C609.131 426.661 601.633 437.687 589.441 445.065C582.216 447.847 574.068 449.888 565.159 451.281C555.997 452.458 546.455 453.283 536.743 453.918C527.398 454.849 518.526 455.897 510.286 457.195C502.868 459.194 496.274 461.607 490.556 464.479C481.908 472.656 476.152 482.344 472.294 492.832C469.824 504.986 466.807 516.401 462.137 526.425C455.878 536.243 446.555 544.132 434.128 550.225C419.308 555.834 401.721 560.069 382.198 563.245C361.418 566.074 339.981 567.848 319.037 568.335C298.717 567.68 280.242 564.929 264.555 559.574C257.467 556.045 251.188 551.743 245.799 546.643C240.932 540.947 236.931 534.465 233.79 527.236C231.074 519.509 229.147 511.352 227.918 502.87C226.866 494.146 226.316 485.291 226.157 476.421C225.543 458.869 225.558 442.137 225.588 426.717C223.918 412.639 221.749 399.962 218.997 388.449C214.325 377.88 209.224 367.656 203.96 357.323C197.336 347.009 191.066 335.926 185.567 324.006C179.787 311.921 175.602 299.203 173.583 286.262C172.568 273.949 174.5 262.107 179.718 251.208C184.972 243.883 200.081 231.022 209.691 225.384C216.461 221.807 223.619 218.412 231.033 215.142C238.359 211.799 245.807 208.453 253.292 205.064C267.391 197.573 281.228 189.574 294.564 181.118C306.523 171.55 318.32 161.889 330.052 152.642C341.097 143.156 352.565 134.874 364.374 128.301C375.983 122.584 387.926 119.202 399.802 118.418C411.368 119.06 422.528 122.449 432.851 128.504C442.751 135.783 451.761 145.261 459.706 156.503C463.679 162.222 467.469 168.208 471.08 174.405C474.811 180.461 478.442 186.598 481.969 192.752" stroke="#5A42ED" stroke-width="2" stroke-linecap="round" stroke-dasharray="5 6"/>
<path opacity="0.98" d="M480.747 207.037C487.144 218.233 493.356 228.83 499.497 238.713C506.861 247.512 514.149 255.995 521.332 264.438C529.567 272.594 537.615 281.565 545.464 291.691C554.091 302.516 562.427 315.083 570.34 329.359C578.465 344.47 585.636 360.898 591.342 377.869C595.882 394.388 597.782 410.072 596.34 423.798C592.196 435.308 584.034 443.877 571.942 449.154C557.677 452.461 540.848 453.592 522.725 453.501C505.724 454.512 490.57 456.512 477.965 460.129C468.314 466.754 460.979 475.022 455.237 484.355C450.854 495.519 446.241 506.441 440.49 516.44C433.757 526.506 424.644 534.945 413.037 541.679C399.629 547.854 383.882 552.411 366.455 555.497C348.071 557.952 329.097 558.909 310.561 558.269C292.672 556.413 276.435 552.446 262.742 546.081C250.883 537.797 242.067 526.803 236.524 513.194C232.533 497.986 231.154 481.606 231.575 464.82C231.817 448.002 232.641 431.707 233.489 416.321C232.852 401.86 231.673 388.395 229.876 375.805C226.316 363.947 222.272 352.403 217.992 340.886C212.503 329.534 207.336 317.773 202.952 305.607C198.367 293.597 195.356 281.393 194.418 269.387C194.406 258.194 197.131 247.721 202.872 238.355C209.981 230.235 220.051 223.232 232.844 217.275C246.128 211.8 260.588 206.801 275.495 201.887C289.532 196.152 303.42 189.981 316.905 183.416C329.121 175.766 341.06 168.022 352.725 160.621C363.527 152.888 374.379 146.218 385.182 141.108C395.496 136.629 405.789 134.287 415.757 134.327C425.257 135.518 434.261 139.215 442.436 145.35C450.198 152.43 457.175 161.542 463.284 172.294C469.515 183.134 475.291 194.865 480.747 207.021" stroke="#5A42ED" stroke-width="2" stroke-linecap="round" stroke-dasharray="10 7"/>
<path opacity="0.5" d="M480.151 222.649C485.265 233.556 490.412 244.204 495.681 254.453C502.141 263.846 508.727 273.174 515.426 282.647C523.126 291.847 530.778 301.842 538.265 312.811C546.394 324.21 554.115 336.952 561.177 350.89C568.209 365.193 574.008 380.235 578.105 395.311C581.004 409.59 581.32 422.736 578.535 433.87C573.576 442.878 565.169 449.186 553.446 452.6C540.157 454.33 524.67 454.219 507.982 453.098C492.184 453 477.671 453.851 465.01 456.238C454.648 461.362 446.033 468.129 438.688 476.105C432.587 485.972 426.413 495.964 419.514 505.432C412.092 515.21 402.927 523.661 391.896 530.559C379.611 536.924 365.501 541.592 350.094 544.569C334.06 546.752 317.587 547.19 301.575 545.793C286.228 543.224 272.378 538.533 260.764 531.601C250.824 523.095 243.568 512.196 239.185 499.031C236.254 484.595 235.641 469.121 236.633 453.206C237.575 437.183 239.065 421.38 240.585 406.149C240.873 391.518 240.69 377.534 239.89 364.188C237.593 351.386 234.815 338.856 231.784 326.473C227.744 314.354 223.994 302.147 220.985 289.928C217.856 278.092 216.179 266.459 216.413 255.389C217.452 245.248 220.924 236.068 227.095 228.134C234.389 221.4 244.304 215.859 256.667 211.419C269.449 207.452 283.338 204.008 297.706 200.723C311.36 196.736 324.993 192.413 338.247 187.783C350.39 182.142 362.187 176.422 373.536 170.992C383.96 165.124 394.124 160.176 403.937 156.582C413.077 153.353 421.898 152.018 430.176 152.79C437.882 154.406 444.989 158.256 451.286 164.295C457.185 171.009 462.409 179.579 466.919 189.716C471.577 199.846 475.939 210.943 480.151 222.649Z" stroke="#5A42ED" stroke-width="2" stroke-linecap="round" stroke-dasharray="4 4"/>
<path opacity="0.45" d="M479.862 239.986C483.828 250.538 487.961 261.121 492.335 271.62C497.816 281.43 503.545 291.412 509.453 301.647C516.296 311.629 523.144 322.316 529.791 333.779C536.959 345.393 543.609 357.955 549.437 371.219C555.115 384.439 559.42 397.887 561.941 410.936C563.402 422.96 562.422 433.67 558.696 442.347C553.265 449.102 544.92 453.416 533.826 455.221C521.611 455.641 507.51 454.525 492.256 452.585C477.701 451.557 463.932 451.402 451.421 452.643C440.648 456.301 431.094 461.512 422.49 467.98C414.961 476.285 407.458 484.963 399.508 493.418C391.387 502.366 382.056 510.303 371.424 516.863C360.073 523.034 347.394 527.53 333.842 530.264C319.999 532.222 305.938 532.291 292.374 530.459C279.536 527.536 268.036 522.544 258.48 515.424C250.434 507.045 244.704 496.514 241.462 483.96C239.521 470.422 239.594 455.905 241.074 440.902C242.618 425.735 244.68 410.546 246.81 395.653C247.983 381.117 248.772 366.949 249.046 353.204C248.091 339.894 246.736 326.819 245.168 313.994C242.777 301.512 240.651 289.187 239.207 277.165C237.672 265.705 237.427 254.775 238.859 244.673C240.951 235.584 245.14 227.625 251.657 221.021C259.048 215.556 268.706 211.35 280.49 208.293C292.617 205.682 305.729 203.677 319.289 201.936C332.322 199.6 345.346 197.083 358.045 194.352C369.793 190.7 381.136 187.011 391.924 183.56C401.805 179.588 411.223 176.39 420.036 174.309C428.107 172.376 435.633 172.034 442.461 173.5C448.672 175.484 454.208 179.418 458.941 185.27C463.321 191.567 467.077 199.544 470.254 208.992C473.58 218.37 476.744 228.784 479.862 239.986Z" stroke="#5A42ED" stroke-width="2" stroke-linecap="round" stroke-dasharray="1 6"/>
<path opacity="0.12" d="M479.312 259.046C482.247 269.181 485.394 279.575 488.837 290.105C493.25 300.103 497.946 310.424 502.819 321.055C508.515 331.431 514.193 342.384 519.635 353.878C525.483 365.297 530.742 377.284 535.12 389.521C539.287 401.417 542.09 413.126 543.18 424.094C543.385 433.952 541.415 442.371 537.053 448.858C531.45 453.632 523.41 456.257 513.088 456.741C502.006 456.116 489.286 454.219 475.448 451.629C462.147 449.853 449.222 448.835 437.07 449.027C426.195 451.28 416.092 454.951 406.653 459.794C398.089 466.358 389.574 473.413 380.829 480.454C372.151 488.14 362.694 495.06 352.441 500.839C341.861 506.394 330.469 510.407 318.601 512.738C306.722 514.388 294.864 514.193 283.579 512.092C273.052 509.076 263.745 504.072 256.139 497.077C249.862 489.094 245.56 479.16 243.384 467.381C242.358 454.842 243.061 441.356 244.983 427.339C247.055 413.154 249.645 398.751 252.345 384.413C254.363 370.291 256.116 356.331 257.482 342.64C257.913 329.305 258.034 316.189 258.016 303.384C257.341 290.999 256.935 278.961 257.096 267.469C257.207 256.631 258.414 246.555 261.003 237.508C264.103 229.486 268.946 222.708 275.699 217.341C283.122 213.03 292.429 210.009 303.515 208.181C314.87 206.781 327.047 206.063 339.596 205.72C351.738 204.887 363.887 204.022 375.721 203.077C386.788 201.303 397.415 199.53 407.407 197.983C416.579 195.863 425.144 194.365 432.978 193.762C443.27 193.421 459.196 200.277 464.825 207.945C467.995 213.85 470.61 221.25 472.713 230.021C474.988 238.678 477.144 248.405 479.312 259.046Z" stroke="#5A42ED" stroke-width="2" stroke-linecap="round" stroke-dasharray="11 9"/>
<path opacity="0.21" d="M477.722 279.401C479.747 289.033 481.952 299.077 484.402 309.392C487.701 319.295 491.229 329.582 494.876 340.173C499.245 350.501 503.522 361.25 507.525 372.286C511.867 383.104 515.571 394.123 518.401 405.042C521.07 415.418 522.434 425.304 522.253 434.227C520.077 445.224 504.649 456.712 491.403 456.792C481.463 455.391 470.096 452.909 457.656 449.858C445.6 447.487 433.632 445.739 422.052 444.985C411.386 445.946 401.128 448.1 391.291 451.282C382.154 456.009 373.043 461.275 363.854 466.637C354.871 472.714 345.465 478.251 335.659 482.893C325.814 487.464 315.58 490.713 305.229 492.444C295.089 493.661 285.189 493.174 275.957 490.9C267.471 487.915 260.114 483.095 254.265 476.436C249.562 469.025 246.551 459.843 245.35 448.983C245.139 437.564 246.41 425.218 248.738 412.29C251.29 399.222 254.345 385.805 257.585 372.297C260.38 358.934 263.042 345.594 265.486 332.428C267.231 319.565 268.79 306.912 270.276 294.642C271.285 282.813 272.529 271.472 274.234 260.833C275.913 250.894 278.454 241.854 282.1 233.958C286.109 227.032 291.503 221.395 298.384 217.201C305.763 213.94 314.63 211.963 324.907 211.223C335.407 210.857 346.516 211.243 357.88 212.105C368.967 212.569 380.019 213.159 390.743 213.775C400.882 213.679 410.545 213.653 419.56 213.809C431.696 213.444 451.238 215.645 458.497 219.215C464.172 224.114 471.477 240.752 473.618 252.322C475.069 260.326 476.397 269.375 477.722 279.401Z" stroke="#5A42ED" stroke-width="2" stroke-linecap="round" stroke-dasharray="11 7"/>
<path opacity="0.84" d="M474.391 300.222C475.593 309.275 476.893 318.778 478.352 328.587C480.536 338.104 482.851 347.977 485.193 358.067C488.151 367.903 490.95 377.992 493.434 388.141C496.218 397.958 498.382 407.7 499.717 417.059C501.01 429.846 496.571 449.099 490.12 454.343C484.723 456.126 477.705 456.312 469.157 454.986C460.318 453.048 450.256 450.19 439.171 446.812C428.377 444.021 417.451 441.674 406.657 440.09C396.482 439.892 386.466 440.647 376.68 442.235C367.426 445.159 358.193 448.557 348.981 452.135C340.037 456.412 330.916 460.341 321.701 463.59C312.649 466.914 303.522 469.168 294.576 470.141C285.951 470.772 277.772 469.932 270.321 467.514C263.59 464.577 257.915 460.008 253.575 453.802C250.218 447.066 248.311 438.753 247.958 428.916C248.446 418.68 250.196 407.566 252.903 395.871C255.839 384.068 259.307 371.86 263.036 359.478C266.496 347.198 269.967 334.861 273.352 322.667C276.27 310.745 279.122 299.033 281.954 287.762C284.448 276.931 287.146 266.665 290.217 257.187C293.254 248.387 296.949 240.546 301.462 233.894C306.229 228.101 312.012 223.593 318.902 220.48C326.144 218.166 334.491 217.108 343.886 217.27C353.454 217.769 363.415 219.073 373.495 220.893C383.39 222.432 393.183 224.211 402.643 226.121C411.659 227.441 420.211 228.88 428.1 230.505C438.77 232.338 455.5 238.024 461.435 242.634C465.95 248.084 471.143 264.297 472.314 275.082C473.135 282.498 473.796 290.893 474.391 300.222Z" stroke="#5A42ED" stroke-width="2" stroke-linecap="round" stroke-dasharray="11 9"/>
<path opacity="0.67" d="M468.739 320.381C469.219 328.752 469.698 337.53 470.215 346.564C471.34 355.386 472.486 364.484 473.56 373.683C475.147 382.645 476.526 391.676 477.571 400.578C478.892 409.114 479.631 417.359 479.652 425.058C479.186 435.302 472.633 449.537 466.068 452.716C460.948 453.469 454.549 452.871 446.919 451.015C439.141 448.748 430.297 445.677 420.563 442.126C411.002 439.051 401.204 436.253 391.389 433.98C381.963 432.8 372.547 432.307 363.232 432.452C354.302 433.681 345.397 435.319 336.57 437.124C328.026 439.595 319.483 441.844 311.057 443.604C302.877 445.551 294.876 446.664 287.236 446.772C276.652 446.069 260.008 437.767 254.816 429.929C252.55 423.871 251.558 416.464 251.907 407.721C252.945 398.721 255.092 388.93 258.078 378.602C261.318 368.2 265.091 357.393 269.196 346.394C273.168 335.497 277.271 324.524 281.413 313.683C285.265 303.079 289.136 292.714 293.053 282.813C296.736 273.323 300.601 264.428 304.741 256.362C308.838 248.881 313.413 242.373 318.548 237.015C323.843 232.383 329.843 228.956 336.593 226.852C343.569 225.388 351.31 225.128 359.776 226.029C368.365 227.215 377.133 229.207 385.875 231.763C394.512 234.114 402.98 236.79 411.077 239.684C418.877 242.103 426.192 244.699 432.896 247.471C442.016 251.088 455.991 259.692 460.746 265.21C464.303 271.196 467.881 287.125 468.319 297.189C468.663 304.072 468.773 311.81 468.739 320.381Z" stroke="#5A42ED" stroke-width="2" stroke-linecap="round" stroke-dasharray="6 1"/>
<path opacity="0.82" d="M460.516 338.57C460.725 353.591 460.562 369.775 460.076 385.999C461.248 401.37 461.132 416.156 458.968 428.691C457.024 439.149 451.738 445.978 442.658 447.961C432.975 447.424 419.419 442.871 402.484 435.495C386.008 429.636 368.607 424.824 351.404 421.85C335.242 422.258 319.146 423.343 304.016 423.707C289.972 425.008 277.388 423.461 267.716 418.084C260.216 411.96 256.629 401.394 257.785 386.394C261.143 370.696 267.887 352.621 276.472 333.77C284.944 315.254 294.142 296.753 303.57 279.877C312.39 264.453 322.099 251.652 332.946 242.9C344.114 236.49 357.225 234.433 372.092 236.978C387.263 240.499 402.245 246.582 415.871 253.917C428.758 259.881 439.63 266.713 447.718 274.459C454.755 280.992 459.124 289.389 460.73 300.006C462.204 310.158 461.992 323.013 460.516 338.57Z" stroke="#5A42ED" stroke-width="2" stroke-linecap="round"/>
<path opacity="0.2" d="M449.782 353.527C448.903 366.845 447.292 380.713 445.13 394.144C444.281 406.888 442.202 418.565 438.484 427.842C435.143 435.508 429.298 439.858 420.678 440.139C411.865 438.743 400.13 434.01 385.727 426.814C371.606 420.766 356.6 415.068 341.698 410.467C327.469 408.374 313.479 406.698 300.697 404.583C288.868 403.46 278.757 400.364 271.499 394.542C265.972 388.408 263.924 378.953 265.983 366.136C269.742 352.92 276.529 337.928 285.106 322.469C293.79 307.315 303.471 292.386 313.504 279.05C323.18 266.908 333.521 257.193 344.454 251.045C355.504 246.699 367.647 246.096 380.573 249.521C393.683 253.73 406.085 260.347 417.029 268.24C427.554 275.205 436.2 283.06 442.384 291.589C447.961 299.139 451.184 307.975 451.975 318.257C452.83 328.11 452.025 339.888 449.782 353.527Z" stroke="#5A42ED" stroke-width="2" stroke-linecap="round" stroke-dasharray="3 10"/>
<path opacity="0.25" d="M436.994 364.222C435.285 375.658 432.657 387.023 429.37 397.552C427.088 407.603 423.688 416.288 419.066 422.669C414.857 427.936 408.857 430.339 400.939 429.446C393.055 427.546 383.054 422.916 371.121 416.133C359.322 410.177 346.871 404.071 334.606 398.47C322.718 394.623 311.235 390.909 301.008 386.968C291.54 383.905 283.794 379.55 278.641 373.46C274.787 367.335 273.93 358.956 276.542 348.28C280.412 337.401 286.937 325.452 295.098 313.401C303.474 301.605 312.926 290.264 322.797 280.438C332.477 271.515 342.666 264.733 353.037 260.936C363.417 258.417 374.279 259.02 385.216 262.962C396.264 267.515 406.262 274.205 414.762 282.068C423.068 289.38 429.652 297.554 434.141 306.23C438.354 314.206 440.566 323.052 440.677 332.717C440.991 342.057 439.732 352.606 436.994 364.222Z" stroke="#5A42ED" stroke-width="2" stroke-linecap="round" stroke-dasharray="3 10"/>
<path opacity="0.89" d="M422.825 369.968C420.597 379.396 417.43 388.264 413.588 396.05C408.435 406.55 394.049 417.377 384.18 416.273C377.287 414.15 368.975 409.86 359.412 403.711C349.89 398.146 340.046 392.091 330.5 386.137C321.162 381.328 312.335 376.439 304.707 371.418C297.613 367.076 292.078 361.982 288.752 355.927C286.311 349.976 286.344 342.672 289.188 334.065C292.913 325.366 298.838 316.261 306.194 307.419C313.764 298.765 322.359 290.745 331.369 284.119C340.295 278.099 349.592 273.892 358.826 272.054C368.045 271.06 377.337 272.54 386.291 276.668C395.284 281.23 403.088 287.562 409.45 294.911C415.751 301.978 420.542 309.815 423.589 318.018C426.577 325.81 427.906 334.145 427.515 342.842C427.361 351.357 425.786 360.484 422.825 369.968Z" stroke="#5A42ED" stroke-width="2" stroke-linecap="round" stroke-dasharray="6 8"/>
<path opacity="0.4" d="M408.159 370.617C403.862 385.316 396.081 396.384 386.442 401.133C377.926 404.54 365.891 400.742 351.227 390.01C336.603 380.714 322.1 369.381 311.429 358.376C302.023 349.184 298.364 337.743 303.343 324.421C310.492 311.057 323.952 298.408 339.094 290.08C354.16 283.225 370.291 282.565 384.247 290.048C398.227 298.702 407.592 312.238 411.403 326.767C415.372 340.523 414.362 355.858 408.159 370.617Z" stroke="#5A42ED" stroke-width="2" stroke-linecap="round" stroke-dasharray="3 10"/>
<path opacity="0.37" d="M393.827 366.464C389.581 377.105 382.578 384.052 374.443 386.145C366.955 387.718 357.451 384.162 347.019 375.59C336.545 367.821 327.043 357.915 320.698 348.137C315.015 339.358 313.594 329.566 318.182 319.885C323.999 310.255 334.323 302.465 345.831 298.302C357.393 294.877 369.609 295.995 379.746 302.689C389.848 310.071 396.124 320.985 398.228 332.503C400.585 343.803 399.187 355.879 393.827 366.464Z" stroke="#5A42ED" stroke-width="2" stroke-linecap="round" stroke-dasharray="10 5"/>
<path opacity="0.55" d="M380.57 358.312C374.136 371.866 360.061 373.307 346.954 361.129C333.693 350.31 326.217 333.057 332.858 320.466C341.611 308.11 360.511 304.492 373.507 314.353C386.364 325.447 388.978 344.989 380.57 358.312Z" stroke="#5A42ED" stroke-width="2" stroke-linecap="round" stroke-dasharray="8 5"/>
<path d="M592.805 203.812L593.725 416.432C593.788 430.112 582.731 441.257 569.052 441.32L204.455 442.896C190.775 442.959 179.63 431.902 179.567 418.223L178.646 205.602C178.583 191.922 189.64 180.777 203.32 180.714L567.917 179.138C572.809 179.113 577.398 180.512 581.243 182.971C588.178 187.333 592.767 195.024 592.805 203.812Z" fill="#5A42ED"/>
<path d="M492.647 179.895C451.444 214.781 446.426 258.53 399.336 342.777C376.099 384.332 352.989 417.239 334.127 442.758L301.473 442.896C290.907 442.947 281.855 436.353 278.249 427.048C284.603 420.656 290.706 414.15 296.228 407.846C375.671 317.17 348.967 256.753 422.661 185.732C424.64 183.816 426.632 181.962 428.624 180.172L492.647 179.895Z" fill="url(#paint0_linear_4782_156472)"/>
<path d="M596.726 203.812L596.966 258.757C579.125 283.318 545.601 322.755 496.43 345.639C447.788 368.283 421.627 357.15 384.005 390.435C373.591 399.639 354.363 417.151 350.052 442.279L316.262 442.43C330.635 420.139 342.222 394.52 370.943 360.957C425.094 297.703 455.202 305.533 490.441 244.119C493.341 239.064 511.61 206.737 517.056 179.39L571.838 179.151C576.73 179.126 581.319 180.525 585.165 182.984C592.099 187.333 596.688 195.024 596.726 203.812Z" fill="#7F6CF1"/>
<path d="M524.016 179.378C518.556 206.737 500.287 239.064 497.388 244.12C462.148 305.533 432.041 297.704 377.889 360.958C349.156 394.52 337.582 420.139 323.209 442.43L247.99 442.758C266.839 417.239 289.962 384.32 313.198 342.777C360.289 258.531 365.294 214.794 406.51 179.895L524.016 179.378Z" fill="#6D57EF"/>
<path d="M597.356 349.496L597.646 416.419C597.709 430.099 586.652 441.244 572.972 441.307L443.98 441.862C464.191 419.47 490.579 395.225 527.949 376.881C556.039 363.1 577.511 358.965 597.356 349.496Z" fill="#B2A6FE"/>
<path d="M596.965 258.757L597.356 349.496C577.511 358.965 556.04 363.1 527.949 376.881C490.592 395.225 464.191 419.47 443.98 441.862L350.039 442.266C354.338 417.138 373.578 399.626 383.992 390.422C421.627 357.137 447.775 368.27 496.417 345.626C545.601 322.755 579.125 283.317 596.965 258.757Z" fill="#9181F3"/>
<path d="M246.438 251.444L213.518 251.583C211.337 251.596 209.534 249.805 209.522 247.624L209.421 223.303C209.408 221.122 211.198 219.319 213.38 219.307L246.299 219.168C248.48 219.155 250.283 220.946 250.296 223.127L250.397 247.448C250.409 249.641 248.619 251.444 246.438 251.444Z" fill="#F6C859"/>
<path d="M225.256 247.234C225.079 247.234 224.916 247.146 224.827 246.982C224.701 246.755 224.802 246.465 225.029 246.339C225.71 245.986 226.643 245.318 227.172 244.183C227.853 242.733 227.664 241.157 227.374 241.031C227.298 240.993 227.021 241.145 226.845 241.233C226.403 241.46 225.785 241.775 225.067 241.535C224.361 241.296 224.02 240.678 223.856 240.375C222.772 238.421 222.419 233.315 223.541 230.768C223.919 229.923 224.424 229.419 225.054 229.268C225.697 229.117 226.227 229.381 226.655 229.596C227.008 229.772 227.185 229.848 227.286 229.785C227.727 229.52 227.714 227.894 227.084 226.608C226.542 225.473 225.609 224.817 224.916 224.464C224.689 224.351 224.588 224.061 224.714 223.834C224.827 223.607 225.117 223.506 225.344 223.632C226.164 224.048 227.273 224.83 227.929 226.204C228.584 227.566 228.9 229.911 227.765 230.604C227.198 230.957 226.643 230.68 226.214 230.453C225.886 230.289 225.571 230.125 225.269 230.201C224.852 230.302 224.562 230.781 224.399 231.159C223.415 233.378 223.718 238.207 224.676 239.922C224.84 240.212 225.029 240.527 225.369 240.64C225.685 240.754 225.987 240.615 226.416 240.388C226.832 240.174 227.298 239.934 227.79 240.174C228.849 240.678 228.786 242.96 228.03 244.586C227.387 245.973 226.277 246.755 225.458 247.184C225.407 247.222 225.332 247.234 225.256 247.234Z" fill="#7D662D"/>
<path d="M223.768 231.625L215.245 231.663C214.98 231.663 214.766 231.449 214.766 231.197C214.766 230.932 214.98 230.718 215.233 230.718L223.756 230.68C224.02 230.68 224.235 230.894 224.235 231.146C224.247 231.411 224.033 231.625 223.768 231.625Z" fill="#7D662D"/>
<path d="M223.806 240.148L215.283 240.186C215.019 240.186 214.804 239.971 214.804 239.719C214.804 239.454 215.019 239.24 215.271 239.24L223.794 239.202C224.058 239.202 224.273 239.416 224.273 239.669C224.273 239.921 224.071 240.148 223.806 240.148Z" fill="#7D662D"/>
<path d="M235.191 247.197C235.115 247.197 235.04 247.184 234.977 247.146C234.157 246.73 233.048 245.949 232.392 244.574C231.61 242.96 231.535 240.678 232.594 240.162C233.085 239.922 233.552 240.162 233.968 240.363C234.397 240.578 234.699 240.716 235.014 240.603C235.367 240.477 235.569 240.098 235.695 239.872C236.628 238.144 236.893 233.315 235.897 231.109C235.721 230.731 235.431 230.252 235.014 230.163C234.762 230.1 234.598 229.848 234.661 229.596C234.724 229.344 234.977 229.18 235.229 229.243C235.859 229.394 236.376 229.886 236.754 230.731C237.902 233.265 237.586 238.371 236.527 240.338C236.364 240.641 236.023 241.271 235.33 241.511C234.611 241.763 233.993 241.448 233.552 241.221C233.375 241.132 233.085 240.994 233.022 241.019C232.732 241.158 232.569 242.734 233.262 244.171C233.804 245.306 234.737 245.961 235.431 246.314C235.657 246.428 235.758 246.718 235.632 246.945C235.531 247.096 235.367 247.197 235.191 247.197Z" fill="#7D662D"/>
<path d="M233.224 229.696C233.023 229.696 232.846 229.57 232.77 229.368C231.749 226.33 234.107 223.972 234.876 223.581C235.103 223.455 235.393 223.556 235.519 223.783C235.645 224.01 235.544 224.3 235.317 224.426C234.977 224.603 232.808 226.481 233.678 229.066C233.766 229.318 233.628 229.583 233.376 229.671C233.325 229.684 233.275 229.696 233.224 229.696Z" fill="#7D662D"/>
<path d="M245.064 231.537L236.541 231.575C236.276 231.575 236.062 231.361 236.062 231.109C236.062 230.844 236.276 230.63 236.528 230.63L245.051 230.592C245.316 230.592 245.53 230.806 245.53 231.058C245.543 231.323 245.329 231.537 245.064 231.537Z" fill="#7D662D"/>
<path d="M245.101 240.06L236.578 240.098C236.313 240.098 236.099 239.883 236.099 239.631C236.099 239.366 236.313 239.152 236.565 239.152L245.088 239.114C245.353 239.114 245.567 239.329 245.567 239.581C245.58 239.846 245.366 240.06 245.101 240.06Z" fill="#7D662D"/>
<path d="M222.888 295.422L222.9 297.515L219.925 297.389L221.665 299.772L219.811 300.894L218.324 298.221L216.861 300.907L215.02 299.797L216.71 297.401L213.772 297.54L213.76 295.447L216.697 295.599L214.982 293.19L216.811 292.068L218.298 294.741L219.761 292.056L221.627 293.165L219.912 295.586L222.888 295.422Z" fill="white"/>
<path d="M238.206 295.346L238.219 297.439L235.244 297.325L236.983 299.708L235.13 300.83L233.655 298.158L232.192 300.843L230.364 299.734L232.054 297.338L229.116 297.477L229.104 295.384L232.041 295.535L230.326 293.127L232.155 292.005L233.642 294.678L235.105 291.992L236.971 293.102L235.256 295.522L238.206 295.346Z" fill="white"/>
<path d="M253.537 295.283L253.55 297.376L250.574 297.263L252.314 299.646L250.461 300.768L248.973 298.095L247.511 300.78L245.67 299.671L247.359 297.275L244.422 297.414L244.409 295.321L247.347 295.472L245.632 293.064L247.46 291.942L248.948 294.615L250.411 291.93L252.277 293.039L250.562 295.46L253.537 295.283Z" fill="white"/>
<path d="M268.856 295.22L268.869 297.313L265.893 297.199L267.633 299.582L265.78 300.704L264.292 298.032L262.83 300.717L260.989 299.608L262.678 297.212L259.741 297.363L259.728 295.27L262.666 295.422L260.951 293.014L262.779 291.892L264.267 294.564L265.729 291.879L267.595 292.988L265.881 295.409L268.856 295.22Z" fill="white"/>
<path d="M294.79 295.107L294.803 297.2L291.827 297.086L293.567 299.469L291.714 300.591L290.239 297.918L288.776 300.604L286.948 299.494L288.638 297.099L285.7 297.237L285.687 295.144L288.625 295.296L286.91 292.888L288.738 291.766L290.214 294.438L291.676 291.753L293.542 292.862L291.815 295.283L294.79 295.107Z" fill="white"/>
<path d="M310.109 295.044L310.122 297.137L307.146 297.024L308.886 299.407L307.033 300.529L305.558 297.856L304.095 300.541L302.267 299.432L303.957 297.036L301.019 297.188L301.006 295.095L303.944 295.246L302.229 292.838L304.057 291.716L305.545 294.389L307.008 291.703L308.874 292.813L307.159 295.233L310.109 295.044Z" fill="white"/>
<path d="M325.441 294.981L325.453 297.074L322.478 296.96L324.218 299.343L322.364 300.465L320.889 297.792L319.427 300.478L317.598 299.368L319.288 296.973L316.35 297.124L316.338 295.031L319.275 295.182L317.561 292.774L319.389 291.652L320.877 294.325L322.339 291.64L324.205 292.749L322.49 295.17L325.441 294.981Z" fill="white"/>
<path d="M340.759 294.906L340.771 296.998L337.796 296.885L339.536 299.268L337.682 300.39L336.195 297.717L334.732 300.403L332.891 299.293L334.581 296.898L331.643 297.049L331.631 294.956L334.568 295.107L332.854 292.699L334.682 291.577L336.169 294.25L337.632 291.564L339.498 292.674L337.783 295.095L340.759 294.906Z" fill="white"/>
<path d="M366.694 294.791L366.707 296.884L363.731 296.771L365.471 299.154L363.618 300.276L362.143 297.603L360.68 300.288L358.852 299.179L360.541 296.783L357.604 296.935L357.591 294.842L360.529 294.993L358.814 292.585L360.642 291.463L362.117 294.136L363.58 291.45L365.446 292.56L363.719 294.98L366.694 294.791Z" fill="white"/>
<path d="M382.013 294.729L382.025 296.822L379.05 296.708L380.79 299.091L378.937 300.213L377.461 297.54L375.999 300.226L374.171 299.116L375.86 296.721L372.923 296.872L372.91 294.779L375.848 294.931L374.133 292.522L375.961 291.4L377.436 294.073L378.899 291.388L380.765 292.497L379.037 294.918L382.013 294.729Z" fill="white"/>
<path d="M397.344 294.665L397.357 296.758L394.381 296.645L396.121 299.028L394.268 300.15L392.793 297.477L391.33 300.162L389.502 299.053L391.191 296.657L388.254 296.809L388.241 294.716L391.179 294.867L389.464 292.459L391.292 291.337L392.78 294.01L394.243 291.324L396.109 292.434L394.394 294.854L397.344 294.665Z" fill="white"/>
<path d="M412.663 294.603L412.676 296.696L409.7 296.582L411.44 298.965L409.587 300.087L408.112 297.414L406.649 300.1L404.821 298.99L406.51 296.595L403.573 296.734L403.56 294.641L406.498 294.792L404.783 292.384L406.611 291.262L408.086 293.935L409.549 291.249L411.415 292.359L409.688 294.779L412.663 294.603Z" fill="white"/>
<path d="M428.852 314.46L428.839 311.976L436.87 303.705C439.013 301.537 440.085 299.683 440.085 298.132C440.085 296.846 439.682 295.85 438.9 295.132C438.118 294.413 437.148 294.06 436.025 294.073C433.869 294.085 432.306 295.106 431.335 297.162L428.776 295.674C429.495 294.186 430.478 293.064 431.751 292.295C433.025 291.526 434.437 291.135 435.975 291.135C437.891 291.122 439.556 291.753 440.98 293.014C442.405 294.274 443.111 295.964 443.124 298.107C443.136 300.414 441.787 302.936 439.077 305.672L433.264 311.509L443.603 311.459L443.615 314.397L428.852 314.46Z" fill="white"/>
<path d="M457.269 300.831C459.009 301.146 460.447 301.902 461.569 303.075C462.691 304.248 463.246 305.735 463.258 307.551C463.271 309.77 462.514 311.535 461.001 312.821C459.476 314.107 457.635 314.763 455.454 314.775C453.714 314.788 452.163 314.397 450.814 313.603C449.465 312.808 448.494 311.674 447.927 310.173L450.474 308.66C451.155 310.766 452.819 311.812 455.454 311.812C456.866 311.812 458.026 311.434 458.909 310.69C459.804 309.946 460.245 308.912 460.232 307.589C460.232 306.265 459.778 305.218 458.883 304.474C457.988 303.731 456.828 303.365 455.416 303.365H454.634L453.424 301.512L458.682 294.338L448.52 294.388L448.507 291.551L462.224 291.488L462.212 294.161L457.269 300.831Z" fill="white"/>
<path d="M485.826 307.021L485.839 309.858L483.065 309.871L483.078 314.221L480.039 314.233L480.027 309.883L468.364 309.934L468.352 307.097L476.484 291.375L479.749 291.362L471.617 307.084L480.014 307.047L479.989 300.579L483.027 300.566L483.053 307.034L485.826 307.021Z" fill="white"/>
<path d="M497.754 300.213C499.91 300.2 501.738 300.83 503.239 302.104C504.739 303.365 505.495 305.13 505.495 307.374C505.508 309.593 504.752 311.345 503.226 312.644C501.7 313.943 499.86 314.586 497.679 314.598C495.939 314.611 494.375 314.195 493.001 313.363C491.627 312.531 490.656 311.32 490.114 309.732L492.686 308.256C493.001 309.366 493.581 310.211 494.464 310.778C495.333 311.358 496.405 311.635 497.666 311.635C499.103 311.635 500.263 311.257 501.158 310.513C502.054 309.769 502.495 308.736 502.482 307.399C502.482 306.075 502.028 305.029 501.133 304.285C500.238 303.541 499.091 303.163 497.704 303.175L491.236 303.201L492.005 291.337L504.55 291.286L504.562 294.123L494.791 294.161L494.413 300.238L497.754 300.213Z" fill="white"/>
<path d="M216.054 377.839C214.718 377.839 213.608 377.41 212.738 376.528C211.868 375.658 211.427 374.574 211.427 373.288C211.427 372.002 211.856 370.917 212.713 370.035C213.583 369.152 214.68 368.698 216.016 368.698C216.823 368.698 217.567 368.887 218.248 369.266C218.929 369.644 219.458 370.161 219.837 370.816L218.815 371.409C218.563 370.917 218.185 370.539 217.681 370.249C217.176 369.959 216.621 369.82 216.016 369.82C214.995 369.82 214.176 370.161 213.533 370.816C212.89 371.472 212.574 372.291 212.574 373.275C212.574 374.246 212.902 375.065 213.545 375.721C214.188 376.376 215.02 376.704 216.042 376.692C216.647 376.692 217.201 376.54 217.693 376.25C218.185 375.96 218.563 375.57 218.815 375.09L219.837 375.67C219.471 376.326 218.941 376.856 218.273 377.246C217.605 377.637 216.861 377.839 216.054 377.839Z" fill="white"/>
<path d="M226.242 371.334H227.338L227.364 377.638H226.267V376.554C225.725 377.386 224.93 377.802 223.897 377.814C223.014 377.814 222.257 377.499 221.64 376.856C221.009 376.213 220.707 375.431 220.694 374.511C220.694 373.591 220.997 372.796 221.614 372.153C222.232 371.51 222.989 371.183 223.871 371.183C224.918 371.183 225.712 371.586 226.254 372.418L226.242 371.334ZM224.023 376.755C224.666 376.755 225.195 376.541 225.624 376.1C226.052 375.671 226.267 375.129 226.254 374.486C226.242 373.843 226.04 373.313 225.599 372.885C225.17 372.456 224.628 372.242 223.997 372.242C223.367 372.242 222.837 372.469 222.409 372.897C221.98 373.326 221.766 373.868 221.778 374.511C221.778 375.154 221.993 375.684 222.434 376.112C222.863 376.541 223.392 376.755 224.023 376.755Z" fill="white"/>
<path d="M230.1 372.38C230.453 371.599 231.108 371.208 232.066 371.195V372.343C231.524 372.317 231.07 372.469 230.68 372.771C230.301 373.087 230.1 373.591 230.112 374.272L230.125 377.613H229.028L229.003 371.309H230.1V372.38Z" fill="white"/>
<path d="M238.005 368.763H239.101L239.139 377.588H238.042V376.504C237.5 377.336 236.706 377.752 235.659 377.765C234.777 377.765 234.02 377.449 233.403 376.806C232.772 376.163 232.457 375.382 232.457 374.461C232.457 373.541 232.76 372.747 233.377 372.104C233.995 371.461 234.752 371.133 235.634 371.133C236.681 371.133 237.475 371.536 238.017 372.369L238.005 368.763ZM235.786 376.706C236.429 376.706 236.958 376.491 237.387 376.05C237.815 375.621 238.03 375.079 238.017 374.436C238.005 373.793 237.803 373.264 237.362 372.835C236.933 372.406 236.391 372.192 235.76 372.192C235.13 372.192 234.6 372.419 234.172 372.848C233.743 373.276 233.529 373.818 233.541 374.461C233.554 375.104 233.756 375.634 234.197 376.063C234.638 376.491 235.155 376.706 235.786 376.706Z" fill="white"/>
<path d="M249.478 368.712H250.638L250.676 377.538H249.516L249.503 373.566L245.217 373.579L245.229 377.55H244.057L244.019 368.725H245.191L245.204 372.469L249.491 372.457L249.478 368.712Z" fill="white"/>
<path d="M257.774 376.705C257.131 377.348 256.349 377.664 255.416 377.676C254.496 377.676 253.702 377.361 253.059 376.731C252.416 376.1 252.088 375.306 252.088 374.373C252.088 373.44 252.403 372.658 253.046 372.015C253.689 371.372 254.471 371.057 255.391 371.044C256.312 371.032 257.106 371.359 257.749 371.99C258.392 372.62 258.72 373.415 258.732 374.348C258.732 375.281 258.417 376.062 257.774 376.705ZM255.416 376.604C256.047 376.604 256.576 376.39 257.005 375.949C257.434 375.52 257.648 374.991 257.635 374.348C257.623 373.705 257.421 373.175 256.98 372.746C256.551 372.318 256.022 372.103 255.391 372.116C254.773 372.116 254.244 372.33 253.815 372.772C253.387 373.2 253.172 373.73 253.185 374.373C253.197 375.016 253.399 375.545 253.84 375.974C254.269 376.39 254.786 376.604 255.416 376.604Z" fill="white"/>
<path d="M260.044 377.487L260.006 368.283H261.103L261.141 377.487H260.044Z" fill="white"/>
<path d="M267.999 368.636H269.096L269.134 377.461H268.037V376.377C267.495 377.209 266.701 377.625 265.654 377.638C264.772 377.638 264.015 377.323 263.397 376.68C262.779 376.037 262.452 375.255 262.452 374.335C262.452 373.414 262.754 372.62 263.372 371.977C263.99 371.334 264.746 371.006 265.629 371.006C266.675 371.006 267.47 371.409 268.012 372.242L267.999 368.636ZM265.793 376.566C266.436 376.566 266.965 376.339 267.394 375.91C267.823 375.482 268.037 374.94 268.024 374.297C268.012 373.654 267.81 373.124 267.369 372.695C266.94 372.267 266.398 372.052 265.768 372.052C265.137 372.052 264.608 372.279 264.179 372.708C263.75 373.137 263.536 373.679 263.549 374.322C263.561 374.965 263.763 375.494 264.204 375.923C264.62 376.364 265.162 376.579 265.793 376.566Z" fill="white"/>
<path d="M271.555 374.789C271.668 375.356 271.92 375.785 272.336 376.1C272.752 376.415 273.244 376.567 273.849 376.554C274.681 376.554 275.286 376.239 275.665 375.621L276.598 376.151C275.993 377.109 275.072 377.575 273.837 377.588C272.841 377.588 272.021 377.285 271.391 376.655C270.76 376.037 270.445 375.243 270.445 374.285C270.445 373.339 270.748 372.545 271.353 371.914C271.958 371.284 272.752 370.969 273.736 370.956C274.656 370.956 275.413 371.271 276.005 371.927C276.585 372.57 276.888 373.364 276.888 374.272C276.888 374.436 276.875 374.6 276.85 374.764L271.555 374.789ZM273.723 372.003C273.131 372.003 272.651 372.166 272.261 372.507C271.87 372.835 271.643 373.289 271.542 373.843L275.753 373.831C275.652 373.238 275.425 372.784 275.034 372.469C274.669 372.154 274.227 372.003 273.723 372.003Z" fill="white"/>
<path d="M279.22 372.167C279.573 371.385 280.229 370.994 281.174 370.981V372.129C280.632 372.104 280.178 372.255 279.787 372.557C279.409 372.873 279.207 373.377 279.207 374.058L279.22 377.399H278.123L278.098 371.095H279.195L279.22 372.167Z" fill="white"/>
<path d="M288.537 370.905C289.281 370.905 289.874 371.132 290.315 371.599C290.756 372.065 290.983 372.696 290.996 373.49L291.009 377.361H289.912L289.899 373.553C289.899 373.036 289.76 372.645 289.483 372.368C289.206 372.09 288.815 371.952 288.336 371.952C287.794 371.952 287.352 372.128 287.012 372.469C286.671 372.809 286.508 373.339 286.52 374.045L286.533 377.386H285.436L285.411 371.082H286.508V371.99C286.936 371.271 287.617 370.905 288.537 370.905Z" fill="white"/>
<path d="M297.729 371.031H298.826L298.851 377.335H297.754V376.251C297.212 377.083 296.418 377.499 295.371 377.512C294.489 377.512 293.732 377.196 293.115 376.553C292.484 375.91 292.169 375.129 292.169 374.208C292.169 373.288 292.472 372.494 293.089 371.851C293.707 371.208 294.464 370.88 295.346 370.88C296.393 370.88 297.187 371.283 297.729 372.115V371.031ZM295.51 376.44C296.153 376.44 296.683 376.226 297.111 375.784C297.54 375.356 297.754 374.814 297.742 374.171C297.729 373.528 297.527 372.998 297.086 372.569C296.657 372.141 296.115 371.926 295.485 371.926C294.854 371.926 294.325 372.153 293.896 372.582C293.468 373.011 293.253 373.553 293.266 374.196C293.278 374.839 293.48 375.368 293.921 375.797C294.338 376.226 294.88 376.44 295.51 376.44Z" fill="white"/>
<path d="M307.285 370.817C307.991 370.817 308.559 371.044 309 371.498C309.441 371.952 309.656 372.57 309.668 373.351L309.681 377.272H308.584L308.571 373.389C308.571 372.898 308.445 372.532 308.193 372.255C307.941 371.99 307.6 371.851 307.184 371.851C306.718 371.851 306.34 372.015 306.062 372.33C305.785 372.645 305.646 373.125 305.646 373.78L305.659 377.285H304.562L304.549 373.402C304.549 372.91 304.423 372.545 304.184 372.267C303.944 371.99 303.616 371.864 303.2 371.864C302.734 371.864 302.355 372.028 302.053 372.343C301.75 372.658 301.599 373.15 301.599 373.78L301.612 377.285H300.515L300.49 370.981H301.586V371.826C302.015 371.145 302.633 370.817 303.465 370.805C304.31 370.805 304.928 371.158 305.318 371.864C305.747 371.183 306.403 370.83 307.285 370.817Z" fill="white"/>
<path d="M311.963 374.625C312.076 375.192 312.328 375.621 312.744 375.936C313.148 376.251 313.652 376.403 314.257 376.403C315.09 376.403 315.695 376.087 316.073 375.47L317.006 375.999C316.401 376.957 315.48 377.437 314.245 377.437C313.249 377.437 312.429 377.134 311.799 376.504C311.168 375.886 310.853 375.091 310.853 374.133C310.853 373.188 311.156 372.393 311.761 371.763C312.366 371.132 313.161 370.817 314.144 370.805C315.064 370.805 315.821 371.12 316.413 371.776C316.993 372.419 317.296 373.2 317.296 374.121C317.296 374.285 317.283 374.448 317.258 374.612L311.963 374.625ZM314.131 371.826C313.539 371.826 313.06 372.002 312.669 372.33C312.278 372.658 312.051 373.112 311.95 373.667L316.161 373.654C316.06 373.062 315.833 372.608 315.443 372.292C315.077 371.977 314.636 371.826 314.131 371.826Z" fill="white"/>
<path d="M487.1 372.531L483.797 372.544L483.809 375.608L487.491 375.595V376.515L482.712 376.54L482.675 368.043L487.264 368.018V368.938L483.771 368.951L483.784 371.636L487.087 371.623L487.1 372.531Z" fill="white"/>
<path d="M489.382 370.401L490.252 371.713C490.479 372.053 490.668 372.368 490.87 372.709H490.907C491.109 372.343 491.311 372.028 491.513 371.7L492.37 370.401H493.568L491.5 373.364L493.656 376.504H492.395L491.5 375.129C491.26 374.776 491.059 374.436 490.844 374.07H490.819C490.617 374.436 490.403 374.764 490.176 375.129L489.294 376.504H488.071L490.227 373.377L488.146 370.401H489.382Z" fill="white"/>
<path d="M494.703 372.368C494.703 371.586 494.678 370.956 494.64 370.376H495.636L495.687 371.422H495.712C496.166 370.679 496.885 370.237 497.868 370.225C499.343 370.225 500.453 371.46 500.465 373.314C500.478 375.507 499.141 376.592 497.704 376.604C496.897 376.604 496.191 376.251 495.826 375.659H495.8L495.813 378.975H494.716L494.703 372.368ZM495.8 373.994C495.8 374.158 495.826 374.31 495.851 374.448C496.052 375.217 496.721 375.747 497.515 375.734C498.688 375.734 499.368 374.763 499.356 373.364C499.356 372.141 498.7 371.095 497.528 371.107C496.771 371.107 496.065 371.662 495.851 372.494C495.813 372.633 495.775 372.797 495.775 372.948L495.8 373.994Z" fill="white"/>
<path d="M503.087 368.623C503.1 369.001 502.822 369.304 502.381 369.304C501.99 369.304 501.713 369.001 501.713 368.623C501.713 368.232 502.003 367.93 502.406 367.93C502.822 367.93 503.087 368.232 503.087 368.623ZM501.889 376.44L501.864 370.338H502.974L502.999 376.44H501.889Z" fill="white"/>
<path d="M504.827 372.242C504.827 371.523 504.815 370.905 504.764 370.338H505.735L505.773 371.536H505.823C506.101 370.716 506.756 370.199 507.5 370.187C507.626 370.187 507.714 370.199 507.815 370.224V371.271C507.702 371.246 507.588 371.233 507.437 371.233C506.655 371.233 506.101 371.826 505.962 372.658C505.937 372.809 505.911 372.985 505.911 373.175L505.924 376.427H504.827V372.242Z" fill="white"/>
<path d="M509.656 370.313L511.005 373.907C511.144 374.31 511.295 374.789 511.396 375.155H511.421C511.534 374.789 511.66 374.323 511.812 373.881L513.009 370.301H514.182L512.543 374.651C511.761 376.743 511.219 377.815 510.463 378.483C509.921 378.962 509.378 379.152 509.101 379.215L508.824 378.282C509.101 378.193 509.467 378.017 509.794 377.739C510.097 377.5 510.475 377.071 510.727 376.504C510.778 376.39 510.816 376.302 510.816 376.239C510.816 376.176 510.79 376.088 510.74 375.949L508.458 370.339L509.656 370.313Z" fill="white"/>
<path d="M517.888 367.993C518.557 367.892 519.351 367.817 520.221 367.804C521.797 367.791 522.919 368.157 523.663 368.85C524.419 369.544 524.873 370.515 524.873 371.889C524.886 373.276 524.457 374.411 523.663 375.192C522.869 375.987 521.557 376.428 519.918 376.428C519.137 376.428 518.481 376.403 517.926 376.34L517.888 367.993ZM519.011 375.495C519.288 375.545 519.691 375.558 520.12 375.558C522.465 375.545 523.726 374.234 523.726 371.939C523.726 369.935 522.591 368.674 520.271 368.674C519.704 368.674 519.275 368.724 518.985 368.787L519.011 375.495Z" fill="white"/>
<path d="M529.652 376.327L529.564 375.558H529.526C529.186 376.037 528.53 376.466 527.66 376.478C526.425 376.478 525.794 375.621 525.782 374.739C525.782 373.263 527.08 372.456 529.438 372.456V372.33C529.438 371.826 529.287 370.918 528.051 370.931C527.484 370.931 526.891 371.107 526.463 371.397L526.21 370.666C526.715 370.338 527.446 370.124 528.215 370.111C530.081 370.099 530.535 371.372 530.548 372.595L530.56 374.877C530.56 375.407 530.585 375.924 530.661 376.34L529.652 376.327ZM529.476 373.213C528.265 373.188 526.891 373.415 526.904 374.6C526.904 375.318 527.383 375.659 527.95 375.659C528.745 375.659 529.249 375.155 529.425 374.625C529.463 374.512 529.488 374.385 529.488 374.272L529.476 373.213Z" fill="white"/>
<path d="M533.599 368.459L533.611 370.211L535.2 370.199V371.044L533.611 371.056L533.624 374.347C533.624 375.103 533.838 375.532 534.456 375.532C534.746 375.532 534.96 375.494 535.099 375.456L535.149 376.288C534.935 376.377 534.595 376.44 534.166 376.44C533.649 376.44 533.233 376.276 532.968 375.973C532.653 375.645 532.54 375.103 532.54 374.385L532.527 371.056H531.581V370.211H532.527V368.749L533.599 368.459Z" fill="white"/>
<path d="M537.003 373.439C537.04 374.94 537.999 375.545 539.108 375.545C539.902 375.545 540.381 375.406 540.798 375.23L540.987 376.024C540.596 376.201 539.928 376.402 538.957 376.415C537.078 376.428 535.956 375.192 535.943 373.351C535.931 371.51 537.015 370.061 538.793 370.048C540.785 370.035 541.314 371.788 541.327 372.91C541.327 373.137 541.302 373.313 541.289 373.427L537.003 373.439ZM540.255 372.633C540.268 371.927 539.953 370.83 538.705 370.842C537.582 370.842 537.091 371.876 537.015 372.645L540.255 372.633Z" fill="white"/>
<path d="M491.778 401.001C490.87 402.274 489.597 402.917 487.945 402.93C486.306 402.93 485.02 402.299 484.1 401.038C483.179 399.765 482.713 398.076 482.713 395.957C482.7 393.839 483.154 392.137 484.062 390.864C484.969 389.59 486.243 388.947 487.895 388.935C489.534 388.922 490.82 389.553 491.74 390.826C492.66 392.099 493.127 393.789 493.127 395.907C493.139 398.025 492.686 399.727 491.778 401.001ZM485.411 399.815C486.003 400.723 486.848 401.177 487.945 401.177C489.042 401.177 489.887 400.711 490.479 399.803C491.072 398.882 491.362 397.596 491.362 395.92C491.362 394.243 491.047 392.957 490.454 392.036C489.849 391.116 489.004 390.662 487.907 390.675C486.81 390.675 485.978 391.141 485.386 392.049C484.793 392.969 484.503 394.268 484.516 395.945C484.516 397.609 484.818 398.908 485.411 399.815Z" fill="white"/>
<path d="M494.463 402.653V401.19L499.204 396.311C500.465 395.038 501.108 393.941 501.095 393.02C501.095 392.264 500.855 391.671 500.389 391.255C499.922 390.826 499.355 390.625 498.687 390.625C497.413 390.625 496.493 391.243 495.913 392.453L494.4 391.57C494.816 390.688 495.409 390.032 496.153 389.578C496.897 389.124 497.729 388.897 498.649 388.897C499.784 388.897 500.767 389.263 501.599 390.007C502.444 390.751 502.86 391.747 502.86 393.008C502.86 394.369 502.066 395.857 500.477 397.471L497.048 400.913L503.15 400.888L503.163 402.628L494.463 402.653Z" fill="white"/>
<path d="M505.671 404.506L504.675 404.531L512.316 387.17L513.324 387.145L505.671 404.506Z" fill="white"/>
<path d="M520.158 394.571C521.192 394.76 522.037 395.201 522.692 395.895C523.348 396.588 523.688 397.471 523.688 398.53C523.688 399.841 523.247 400.875 522.352 401.644C521.457 402.4 520.36 402.791 519.074 402.791C518.053 402.791 517.132 402.564 516.338 402.098C515.544 401.631 514.976 400.95 514.636 400.068L516.136 399.173C516.54 400.421 517.523 401.039 519.074 401.026C519.906 401.026 520.587 400.799 521.116 400.358C521.646 399.917 521.898 399.311 521.898 398.517C521.898 397.735 521.633 397.118 521.104 396.676C520.574 396.235 519.893 396.021 519.061 396.021H518.595L517.876 394.924L520.978 390.688L514.976 390.713L514.964 389.036L523.058 388.998V390.574L520.158 394.571Z" fill="white"/>
<path d="M534.33 400.812C533.422 402.085 532.149 402.728 530.497 402.741C528.845 402.754 527.572 402.111 526.652 400.85C525.731 399.577 525.265 397.887 525.265 395.769C525.252 393.651 525.706 391.949 526.614 390.675C527.521 389.402 528.795 388.759 530.447 388.746C532.098 388.734 533.372 389.377 534.292 390.637C535.212 391.898 535.679 393.6 535.679 395.718C535.679 397.849 535.238 399.539 534.33 400.812ZM527.963 399.627C528.555 400.535 529.4 400.989 530.497 400.989C531.594 400.989 532.439 400.522 533.019 399.614C533.611 398.694 533.901 397.408 533.901 395.731C533.901 394.054 533.586 392.768 532.993 391.848C532.388 390.927 531.543 390.474 530.447 390.486C529.35 390.486 528.518 390.953 527.925 391.86C527.345 392.781 527.042 394.079 527.055 395.756C527.068 397.433 527.37 398.719 527.963 399.627Z" fill="white"/>
<path d="M214.273 408.353H216.724V401.318L220.333 406.506H221.189L224.799 401.318V408.353H227.284V395.946H225.605L220.786 402.98L215.918 395.946H214.273V408.353ZM236.337 399.203V400.294C235.649 399.539 234.709 398.968 233.416 398.968C230.814 398.968 228.883 400.982 228.883 403.736C228.883 406.455 230.763 408.571 233.416 408.571C234.709 408.571 235.666 408.017 236.337 407.295V408.353H238.587V399.203H236.337ZM233.802 406.422C232.291 406.422 231.25 405.23 231.25 403.769C231.25 402.342 232.274 401.134 233.802 401.134C235.313 401.134 236.371 402.342 236.371 403.769C236.371 405.213 235.313 406.422 233.802 406.422ZM246.384 405.952C245.93 406.204 245.443 406.422 244.856 406.422C243.966 406.422 243.563 405.868 243.563 404.81V401.184H246.585V399.203H243.563V395.963H241.213V399.203H239.702V401.184H241.196V404.961C241.196 407.328 242.287 408.571 244.386 408.571C245.326 408.571 246.367 408.302 247.089 407.815L246.384 405.952ZM253.881 405.952C253.428 406.204 252.941 406.422 252.353 406.422C251.463 406.422 251.06 405.868 251.06 404.81V401.184H254.082V399.203H251.06V395.963H248.71V399.203H247.199V401.184H248.693V404.961C248.693 407.328 249.785 408.571 251.883 408.571C252.823 408.571 253.864 408.302 254.586 407.815L253.881 405.952ZM263.321 408.554C266.04 408.554 267.87 406.976 267.87 404.777C267.87 403.199 266.964 402.275 265.755 401.688C264.916 401.268 263.673 400.798 263.019 400.496C262.515 400.244 262.011 399.891 262.011 399.27C262.011 398.565 262.616 398.078 263.606 398.078C264.462 398.078 265.587 398.464 266.326 399.237L267.652 397.423C266.494 396.248 265.016 395.745 263.573 395.745C261.054 395.745 259.342 397.323 259.342 399.371C259.342 400.915 260.215 401.839 261.306 402.46C262.179 402.947 263.203 403.249 263.992 403.618C264.63 403.92 265.117 404.29 265.117 404.911C265.117 405.683 264.378 406.237 263.337 406.237C262.078 406.237 260.87 405.633 260.047 404.508L258.62 406.237C259.678 407.765 261.424 408.554 263.321 408.554ZM274.897 405.952C274.444 406.204 273.957 406.422 273.369 406.422C272.48 406.422 272.077 405.868 272.077 404.81V401.184H275.099V399.203H272.077V395.963H269.726V399.203H268.215V401.184H269.71V404.961C269.71 407.328 270.801 408.571 272.899 408.571C273.839 408.571 274.88 408.302 275.602 407.815L274.897 405.952ZM285.235 403.568C285.235 400.664 283.254 398.968 280.652 398.968C277.798 398.968 275.884 401.033 275.884 403.769C275.884 406.22 277.428 408.554 280.853 408.554C282.549 408.554 283.976 407.933 284.849 407.295L283.908 405.633C283.136 406.17 281.961 406.556 280.954 406.556C279.392 406.556 278.57 405.717 278.284 404.609H285.151C285.201 404.273 285.235 403.937 285.235 403.568ZM280.652 400.932C281.86 400.932 282.716 401.671 282.935 402.846H278.284C278.57 401.654 279.46 400.932 280.652 400.932ZM292.374 399.203L290.125 405.129L287.825 399.203H285.223L289.185 408.336H290.998L294.977 399.203H292.374ZM304.344 403.568C304.344 400.664 302.363 398.968 299.761 398.968C296.907 398.968 294.993 401.033 294.993 403.769C294.993 406.22 296.538 408.554 299.963 408.554C301.658 408.554 303.085 407.933 303.958 407.295L303.018 405.633C302.246 406.17 301.071 406.556 300.063 406.556C298.502 406.556 297.679 405.717 297.394 404.609H304.26C304.311 404.273 304.344 403.937 304.344 403.568ZM299.761 400.932C300.97 400.932 301.826 401.671 302.044 402.846H297.394C297.679 401.654 298.569 400.932 299.761 400.932ZM305.731 408.353H308.098V403.45C308.098 402.074 308.955 401.134 310.197 401.134C311.339 401.134 312.128 401.923 312.128 403.4V408.353H314.495V402.762C314.495 400.177 312.766 398.951 310.919 398.951C309.559 398.951 308.518 399.623 308.048 400.479V399.203H305.731V408.353ZM319.334 408.588C321.566 408.588 322.977 407.312 322.977 405.65C322.977 404.575 322.456 403.87 321.432 403.333C320.71 402.964 319.804 402.661 319.233 402.443C318.628 402.242 318.427 401.923 318.427 401.604C318.427 401.184 318.813 400.831 319.468 400.831C320.089 400.831 320.878 401.083 321.566 401.738L322.742 400.21C321.852 399.287 320.71 398.901 319.535 398.901C317.453 398.901 316.11 400.059 316.11 401.654C316.11 402.712 316.647 403.518 317.688 404.021C318.242 404.307 319.451 404.693 319.955 404.928C320.391 405.129 320.609 405.381 320.609 405.717C320.609 406.237 320.072 406.607 319.35 406.607C318.427 406.607 317.47 406.12 316.815 405.331L315.556 406.825C316.48 408 317.873 408.588 319.334 408.588ZM328.748 408.588C331.669 408.588 333.65 406.439 333.65 403.769C333.65 401.134 331.669 398.951 328.748 398.951C325.827 398.951 323.846 401.134 323.846 403.769C323.846 406.439 325.827 408.588 328.748 408.588ZM328.748 406.388C327.321 406.388 326.213 405.23 326.213 403.769C326.213 402.326 327.321 401.167 328.748 401.167C330.175 401.167 331.283 402.326 331.283 403.769C331.283 405.23 330.175 406.388 328.748 406.388ZM335.076 408.353H337.443V403.45C337.443 402.074 338.3 401.134 339.542 401.134C340.683 401.134 341.472 401.923 341.472 403.4V408.353H343.84V402.762C343.84 400.177 342.11 398.951 340.264 398.951C338.904 398.951 337.863 399.623 337.393 400.479V399.203H335.076V408.353Z" fill="white"/>
</g>
<defs>
<linearGradient id="paint0_linear_4782_156472" x1="277.751" y1="311.906" x2="493.211" y2="310.973" gradientUnits="userSpaceOnUse">
<stop stop-color="#35C4FE"/>
<stop offset="1" stop-color="#FCEE21"/>
</linearGradient>
<clipPath id="clip0_4782_156472">
<rect width="770" height="728" fill="white"/>
</clipPath>
</defs>
</svg>
