<svg width="420" height="264" viewBox="0 0 420 264" fill="none" xmlns="http://www.w3.org/2000/svg">
<path d="M414.316 24.9153L415.236 237.536C415.299 251.215 404.242 262.361 390.562 262.424L25.9655 264C12.2859 264.063 1.14043 253.006 1.07739 239.326L0.157007 26.7056C0.0939667 13.026 11.1511 1.88058 24.8308 1.81754L389.427 0.241546C394.319 0.21633 398.909 1.61581 402.754 4.07436C409.688 8.43671 414.278 16.1276 414.316 24.9153Z" fill="#5A42ED"/>
<path d="M314.158 0.998047C272.955 35.8842 267.937 79.6338 220.847 163.88C197.61 205.436 174.5 238.343 155.638 263.861L122.984 264C112.418 264.05 103.366 257.456 99.7598 248.152C106.114 241.759 112.216 235.254 117.739 228.95C197.181 138.273 170.478 77.8561 244.171 6.83553C246.151 4.91912 248.143 3.06575 250.135 1.27542L314.158 0.998047Z" fill="url(#paint0_linear_4881_315)"/>
<path d="M418.237 24.9154L418.476 79.8608C400.636 104.421 367.112 143.859 317.941 166.742C269.299 189.386 243.138 178.253 205.515 211.538C195.101 220.742 175.874 238.254 171.562 263.382L137.773 263.533C152.146 241.243 163.733 215.623 192.454 182.061C246.605 118.807 276.713 126.636 311.952 65.223C314.852 60.1672 333.121 27.8404 338.567 0.493795L393.349 0.254241C398.241 0.229025 402.83 1.62851 406.675 4.08706C413.61 8.4368 418.199 16.1277 418.237 24.9154Z" fill="#7F6CF1"/>
<path d="M345.526 0.481445C340.067 27.8407 321.798 60.1675 318.898 65.2233C283.659 126.637 253.551 118.807 199.4 182.061C170.667 215.623 159.093 241.243 144.72 263.534L69.5005 263.861C88.3494 238.343 111.472 205.424 134.709 163.88C181.8 79.6341 186.805 35.8972 228.02 0.998371L345.526 0.481445Z" fill="#6D57EF"/>
<path d="M418.866 170.6L419.156 237.523C419.219 251.202 408.162 262.348 394.483 262.411L265.491 262.965C285.701 240.574 312.09 216.329 349.46 197.984C377.55 184.204 399.022 180.068 418.866 170.6Z" fill="#B2A6FE"/>
<path d="M418.476 79.8604L418.867 170.6C399.022 180.068 377.551 184.204 349.46 197.984C312.103 216.329 285.702 240.574 265.491 262.966L171.549 263.369C175.849 238.241 195.088 220.729 205.503 211.525C243.137 178.24 269.286 189.373 317.928 166.729C367.111 143.858 400.636 104.421 418.476 79.8604Z" fill="#9181F3"/>
<path d="M67.9484 72.5479L35.029 72.6866C32.8479 72.6992 31.0449 70.9089 31.0323 68.7277L30.9315 44.407C30.9189 42.2258 32.7092 40.4228 34.8904 40.4102L67.8097 40.2716C69.9909 40.2589 71.7939 42.0493 71.8065 44.2304L71.9073 68.5512C71.9199 70.7449 70.1296 72.5479 67.9484 72.5479Z" fill="#F6C859"/>
<path d="M46.7667 68.3377C46.5902 68.3377 46.4263 68.2494 46.338 68.0855C46.2119 67.8586 46.3128 67.5686 46.5397 67.4425C47.2205 67.0895 48.1535 66.4213 48.6831 65.2865C49.3639 63.8366 49.1748 62.2606 48.8848 62.1345C48.8092 62.0967 48.5318 62.248 48.3553 62.3363C47.914 62.5632 47.2962 62.8784 46.5775 62.6389C45.8715 62.3993 45.5311 61.7815 45.3672 61.4789C44.2829 59.5247 43.9299 54.4185 45.052 51.8717C45.4302 51.027 45.9345 50.5226 46.5649 50.3713C47.2079 50.22 47.7375 50.4848 48.1661 50.6991C48.5192 50.8757 48.6957 50.9513 48.7965 50.8883C49.2378 50.6235 49.2252 48.9971 48.5948 47.7111C48.0527 46.5763 47.1197 45.9207 46.4263 45.5677C46.1993 45.4542 46.0984 45.1643 46.2245 44.9373C46.338 44.7104 46.628 44.6095 46.8549 44.7356C47.6744 45.1516 48.7839 45.9333 49.4396 47.3076C50.0952 48.6693 50.4104 51.0143 49.2757 51.7078C48.7083 52.0608 48.1535 51.7834 47.7249 51.5565C47.3971 51.3926 47.0819 51.2287 46.7793 51.3043C46.3632 51.4052 46.0732 51.8843 45.9093 52.2625C44.9259 54.4815 45.2285 59.3104 46.1867 61.025C46.3506 61.315 46.5397 61.6302 46.8801 61.7437C47.1953 61.8572 47.4979 61.7185 47.9266 61.4915C48.3427 61.2772 48.8092 61.0377 49.3009 61.2772C50.3599 61.7815 50.2969 64.0636 49.5404 65.69C48.8974 67.0769 47.7879 67.8586 46.9684 68.2872C46.918 68.325 46.8423 68.3377 46.7667 68.3377Z" fill="#7D662D"/>
<path d="M45.2789 52.7288L36.756 52.7666C36.4912 52.7666 36.2769 52.5523 36.2769 52.3001C36.2769 52.0354 36.4912 51.821 36.7434 51.821L45.2663 51.7832C45.5311 51.7832 45.7454 51.9975 45.7454 52.2497C45.758 52.5145 45.5437 52.7288 45.2789 52.7288Z" fill="#7D662D"/>
<path d="M45.317 61.2513L36.7941 61.2891C36.5293 61.2891 36.3149 61.0748 36.3149 60.8226C36.3149 60.5578 36.5293 60.3435 36.7814 60.3435L45.3044 60.3057C45.5692 60.3057 45.7835 60.52 45.7835 60.7722C45.7835 61.0243 45.5818 61.2513 45.317 61.2513Z" fill="#7D662D"/>
<path d="M56.7017 68.3003C56.6261 68.3003 56.5504 68.2876 56.4874 68.2498C55.6679 67.8338 54.5584 67.0521 53.9027 65.6778C53.121 64.064 53.0454 61.7819 54.1045 61.265C54.5962 61.0255 55.0627 61.265 55.4787 61.4668C55.9074 61.6811 56.21 61.8198 56.5252 61.7063C56.8782 61.5802 57.08 61.202 57.206 60.975C58.139 59.2477 58.4038 54.4189 57.4078 52.2125C57.2313 51.8343 56.9413 51.3552 56.5252 51.2669C56.273 51.2039 56.1091 50.9517 56.1722 50.6996C56.2352 50.4474 56.4874 50.2835 56.7395 50.3465C57.3699 50.4978 57.8869 50.9895 58.2651 51.8343C59.4124 54.3685 59.0972 59.4747 58.0382 61.4415C57.8743 61.7441 57.5338 62.3745 56.8404 62.6141C56.1218 62.8662 55.504 62.551 55.0627 62.3241C54.8862 62.2358 54.5962 62.0971 54.5331 62.1224C54.2432 62.261 54.0792 63.837 54.7727 65.2743C55.3148 66.4091 56.2478 67.0647 56.9413 67.4177C57.1682 67.5312 57.2691 67.8212 57.143 68.0481C57.0421 68.1994 56.8782 68.3003 56.7017 68.3003Z" fill="#7D662D"/>
<path d="M54.7351 50.7996C54.5333 50.7996 54.3568 50.6736 54.2812 50.4718C53.2599 47.4333 55.6176 45.0757 56.3867 44.6848C56.6137 44.5587 56.9037 44.6596 57.0297 44.8865C57.1558 45.1135 57.055 45.4035 56.828 45.5295C56.4876 45.706 54.319 47.5846 55.189 50.1692C55.2772 50.4214 55.1385 50.6862 54.8864 50.7744C54.8359 50.787 54.7855 50.7996 54.7351 50.7996Z" fill="#7D662D"/>
<path d="M66.5746 52.6409L58.0516 52.6787C57.7869 52.6787 57.5725 52.4644 57.5725 52.2122C57.5725 51.9475 57.7868 51.7331 58.039 51.7331L66.562 51.6953C66.8268 51.6953 67.0411 51.9096 67.0411 52.1618C67.0537 52.4266 66.8394 52.6409 66.5746 52.6409Z" fill="#7D662D"/>
<path d="M66.6117 61.1634L58.0887 61.2012C57.824 61.2012 57.6096 60.9869 57.6096 60.7347C57.6096 60.4699 57.824 60.2556 58.0761 60.2556L66.5991 60.2178C66.8639 60.2178 67.0782 60.4321 67.0782 60.6843C67.0908 60.9491 66.8765 61.1634 66.6117 61.1634Z" fill="#7D662D"/>
<path d="M44.3984 116.526L44.411 118.618L41.4355 118.492L43.1754 120.875L41.3221 121.997L39.8343 119.325L38.3718 122.01L36.5311 120.901L38.2205 118.505L35.2829 118.644L35.2703 116.551L38.2079 116.702L36.4932 114.294L38.3214 113.172L39.8091 115.845L41.2716 113.159L43.1376 114.269L41.4229 116.689L44.3984 116.526Z" fill="white"/>
<path d="M59.7172 116.449L59.7298 118.542L56.7543 118.429L58.4942 120.812L56.6409 121.934L55.1657 119.261L53.7032 121.947L51.8751 120.837L53.5645 118.442L50.6269 118.58L50.6143 116.487L53.5519 116.639L51.8372 114.23L53.6654 113.108L55.1531 115.781L56.6156 113.096L58.4816 114.205L56.7669 116.626L59.7172 116.449Z" fill="white"/>
<path d="M75.0481 116.387L75.0607 118.48L72.0852 118.366L73.8251 120.749L71.9717 121.871L70.484 119.198L69.0215 121.884L67.1807 120.774L68.8702 118.379L65.9325 118.518L65.9199 116.425L68.8576 116.576L67.1429 114.168L68.971 113.046L70.4588 115.719L71.9213 113.033L73.7873 114.143L72.0726 116.563L75.0481 116.387Z" fill="white"/>
<path d="M90.367 116.324L90.3796 118.416L87.4041 118.303L89.144 120.686L87.2906 121.808L85.8029 119.135L84.3403 121.821L82.4996 120.711L84.189 118.316L81.2514 118.467L81.2388 116.374L84.1764 116.525L82.4617 114.117L84.2899 112.995L85.7776 115.668L87.2402 112.982L89.1062 114.092L87.3915 116.513L90.367 116.324Z" fill="white"/>
<path d="M116.301 116.21L116.314 118.303L113.338 118.19L115.078 120.572L113.225 121.695L111.75 119.022L110.287 121.707L108.459 120.598L110.148 118.202L107.211 118.341L107.198 116.248L110.136 116.399L108.421 113.991L110.249 112.869L111.724 115.542L113.187 112.856L115.053 113.966L113.326 116.387L116.301 116.21Z" fill="white"/>
<path d="M131.62 116.148L131.633 118.241L128.657 118.127L130.397 120.51L128.544 121.632L127.069 118.959L125.606 121.645L123.778 120.535L125.467 118.14L122.53 118.291L122.517 116.198L125.455 116.349L123.74 113.941L125.568 112.819L127.056 115.492L128.518 112.807L130.384 113.916L128.67 116.337L131.62 116.148Z" fill="white"/>
<path d="M146.951 116.084L146.964 118.177L143.988 118.064L145.728 120.447L143.875 121.569L142.4 118.896L140.937 121.581L139.109 120.472L140.799 118.076L137.861 118.228L137.848 116.135L140.786 116.286L139.071 113.878L140.9 112.756L142.387 115.429L143.85 112.743L145.716 113.853L144.001 116.273L146.951 116.084Z" fill="white"/>
<path d="M162.27 116.009L162.282 118.102L159.307 117.989L161.047 120.371L159.193 121.494L157.705 118.821L156.243 121.506L154.402 120.397L156.092 118.001L153.154 118.152L153.141 116.06L156.079 116.211L154.364 113.803L156.192 112.681L157.68 115.353L159.143 112.668L161.009 113.777L159.294 116.198L162.27 116.009Z" fill="white"/>
<path d="M188.205 115.895L188.217 117.988L185.242 117.874L186.982 120.257L185.128 121.379L183.653 118.706L182.191 121.392L180.363 120.282L182.052 117.887L179.114 118.038L179.102 115.945L182.039 116.097L180.325 113.688L182.153 112.566L183.628 115.239L185.091 112.554L186.957 113.663L185.229 116.084L188.205 115.895Z" fill="white"/>
<path d="M203.524 115.832L203.536 117.925L200.561 117.812L202.301 120.195L200.447 121.317L198.972 118.644L197.51 121.329L195.681 120.22L197.371 117.824L194.433 117.976L194.421 115.883L197.358 116.034L195.644 113.626L197.472 112.504L198.947 115.177L200.409 112.491L202.275 113.601L200.548 116.021L203.524 115.832Z" fill="white"/>
<path d="M218.855 115.769L218.868 117.862L215.892 117.748L217.632 120.131L215.779 121.253L214.303 118.58L212.841 121.266L211.013 120.156L212.702 117.761L209.765 117.912L209.752 115.819L212.69 115.971L210.975 113.562L212.803 112.44L214.291 115.113L215.753 112.428L217.619 113.537L215.905 115.958L218.855 115.769Z" fill="white"/>
<path d="M234.174 115.706L234.186 117.799L231.211 117.686L232.951 120.069L231.097 121.191L229.622 118.518L228.16 121.203L226.332 120.094L228.021 117.698L225.083 117.837L225.071 115.744L228.008 115.895L226.294 113.487L228.122 112.365L229.597 115.038L231.06 112.353L232.926 113.462L231.198 115.883L234.174 115.706Z" fill="white"/>
<path d="M250.362 135.563L250.35 133.079L258.381 124.809C260.524 122.64 261.596 120.787 261.596 119.236C261.596 117.95 261.192 116.954 260.411 116.235C259.629 115.517 258.658 115.164 257.536 115.176C255.38 115.189 253.817 116.21 252.846 118.265L250.287 116.777C251.005 115.29 251.989 114.167 253.262 113.398C254.535 112.629 255.948 112.238 257.486 112.238C259.402 112.226 261.066 112.856 262.491 114.117C263.916 115.378 264.622 117.067 264.634 119.211C264.647 121.518 263.298 124.04 260.587 126.775L254.775 132.613L265.113 132.562L265.126 135.5L250.362 135.563Z" fill="white"/>
<path d="M278.78 121.934C280.52 122.249 281.957 123.006 283.08 124.179C284.202 125.351 284.756 126.839 284.769 128.654C284.782 130.873 284.025 132.638 282.512 133.924C280.987 135.21 279.146 135.866 276.965 135.879C275.225 135.891 273.674 135.5 272.325 134.706C270.976 133.912 270.005 132.777 269.438 131.277L271.985 129.764C272.665 131.869 274.33 132.916 276.965 132.916C278.377 132.916 279.537 132.538 280.419 131.794C281.314 131.05 281.756 130.016 281.743 128.692C281.743 127.368 281.289 126.322 280.394 125.578C279.499 124.834 278.339 124.468 276.927 124.468H276.145L274.935 122.615L280.192 115.441L270.03 115.492L270.018 112.655L283.735 112.592L283.723 115.265L278.78 121.934Z" fill="white"/>
<path d="M307.337 128.125L307.35 130.962L304.576 130.974L304.589 135.324L301.55 135.337L301.538 130.987L289.875 131.037L289.863 128.201L297.995 112.478L301.26 112.466L293.128 128.188L301.525 128.15L301.5 121.682L304.538 121.67L304.563 128.138L307.337 128.125Z" fill="white"/>
<path d="M319.265 121.316C321.421 121.303 323.249 121.934 324.749 123.207C326.25 124.468 327.006 126.233 327.006 128.477C327.019 130.696 326.262 132.449 324.737 133.748C323.211 135.046 321.37 135.689 319.189 135.702C317.449 135.714 315.886 135.298 314.512 134.466C313.137 133.634 312.167 132.424 311.625 130.835L314.197 129.36C314.512 130.469 315.092 131.314 315.974 131.882C316.844 132.462 317.916 132.739 319.177 132.739C320.614 132.739 321.774 132.361 322.669 131.617C323.564 130.873 324.006 129.839 323.993 128.503C323.993 127.179 323.539 126.132 322.644 125.388C321.749 124.645 320.601 124.266 319.215 124.279L312.747 124.304L313.516 112.44L326.061 112.39L326.073 115.226L316.302 115.264L315.924 121.341L319.265 121.316Z" fill="white"/>
<path d="M37.5649 198.942C36.2284 198.942 35.1189 198.514 34.249 197.631C33.379 196.761 32.9377 195.677 32.9377 194.391C32.9377 193.105 33.3664 192.021 34.2238 191.138C35.0937 190.256 36.1906 189.802 37.527 189.802C38.334 189.802 39.0778 189.991 39.7587 190.369C40.4395 190.747 40.969 191.264 41.3473 191.92L40.326 192.512C40.0739 192.021 39.6956 191.643 39.1913 191.353C38.687 191.063 38.1322 190.924 37.527 190.924C36.5058 190.924 35.6863 191.264 35.0433 191.92C34.4003 192.575 34.0851 193.395 34.0851 194.378C34.0851 195.349 34.4129 196.169 35.0559 196.824C35.6989 197.48 36.531 197.808 37.5523 197.795C38.1574 197.795 38.7122 197.644 39.2039 197.354C39.6956 197.064 40.0739 196.673 40.326 196.194L41.3473 196.774C40.9816 197.43 40.4521 197.959 39.7839 198.35C39.1156 198.741 38.3718 198.942 37.5649 198.942Z" fill="white"/>
<path d="M47.7523 192.437H48.8492L48.8744 198.741H47.7775V197.657C47.2354 198.489 46.4411 198.905 45.4072 198.918C44.5247 198.918 43.7682 198.603 43.1504 197.96C42.52 197.317 42.2174 196.535 42.2048 195.615C42.2048 194.694 42.5074 193.9 43.1252 193.257C43.743 192.614 44.4995 192.286 45.382 192.286C46.4285 192.286 47.2228 192.69 47.7649 193.522L47.7523 192.437ZM45.5333 197.859C46.1763 197.859 46.7059 197.644 47.1345 197.203C47.5632 196.775 47.7775 196.232 47.7649 195.589C47.7523 194.946 47.5506 194.417 47.1093 193.988C46.6806 193.56 46.1385 193.345 45.5081 193.345C44.8777 193.345 44.3482 193.572 43.9195 194.001C43.4908 194.429 43.2765 194.972 43.2891 195.615C43.2891 196.258 43.5034 196.787 43.9447 197.216C44.3734 197.644 44.9029 197.859 45.5333 197.859Z" fill="white"/>
<path d="M51.6103 193.484C51.9634 192.702 52.619 192.311 53.5772 192.299V193.446C53.035 193.421 52.5811 193.572 52.1903 193.875C51.8121 194.19 51.6103 194.694 51.6229 195.375L51.6355 198.716H50.5386L50.5134 192.412H51.6103V193.484Z" fill="white"/>
<path d="M59.5153 189.866H60.6122L60.65 198.692H59.5531V197.607C59.011 198.44 58.2167 198.856 57.1702 198.868C56.2876 198.868 55.5312 198.553 54.9134 197.91C54.283 197.267 53.9678 196.485 53.9678 195.565C53.9678 194.645 54.2704 193.85 54.8882 193.207C55.5059 192.564 56.2624 192.236 57.145 192.236C58.1914 192.236 58.9857 192.64 59.5279 193.472L59.5153 189.866ZM57.2963 197.809C57.9393 197.809 58.4688 197.595 58.8975 197.154C59.3262 196.725 59.5405 196.183 59.5279 195.54C59.5153 194.897 59.3135 194.367 58.8723 193.939C58.4436 193.51 57.9015 193.296 57.2711 193.296C56.6407 193.296 56.1111 193.522 55.6825 193.951C55.2538 194.38 55.0395 194.922 55.0521 195.565C55.0647 196.208 55.2664 196.737 55.7077 197.166C56.1489 197.595 56.6659 197.809 57.2963 197.809Z" fill="white"/>
<path d="M70.9888 189.815H72.1487L72.1865 198.641H71.0266L71.014 194.67L66.7273 194.682L66.7399 198.654H65.5674L65.5295 189.828H66.7021L66.7147 193.573L71.0014 193.56L70.9888 189.815Z" fill="white"/>
<path d="M79.2849 197.809C78.6418 198.452 77.8602 198.767 76.9272 198.78C76.0068 198.78 75.2125 198.464 74.5695 197.834C73.9264 197.204 73.5986 196.409 73.5986 195.476C73.5986 194.543 73.9138 193.762 74.5568 193.119C75.1999 192.476 75.9816 192.16 76.9019 192.148C77.8223 192.135 78.6166 192.463 79.2596 193.093C79.9027 193.724 80.2305 194.518 80.2431 195.451C80.2431 196.384 79.9279 197.166 79.2849 197.809ZM76.9272 197.708C77.5576 197.708 78.0871 197.494 78.5158 197.052C78.9444 196.624 79.1588 196.094 79.1462 195.451C79.1336 194.808 78.9318 194.279 78.4906 193.85C78.0619 193.421 77.5323 193.207 76.9019 193.219C76.2841 193.219 75.7546 193.434 75.3259 193.875C74.8973 194.304 74.6829 194.833 74.6955 195.476C74.7081 196.119 74.9099 196.649 75.3512 197.078C75.7798 197.494 76.2968 197.708 76.9272 197.708Z" fill="white"/>
<path d="M81.5544 198.591L81.5166 189.387H82.6135L82.6513 198.591H81.5544Z" fill="white"/>
<path d="M89.5099 189.739H90.6068L90.6446 198.565H89.5477V197.481C89.0056 198.313 88.2113 198.729 87.1648 198.741C86.2823 198.741 85.5258 198.426 84.908 197.783C84.2902 197.14 83.9624 196.358 83.9624 195.438C83.9624 194.518 84.265 193.723 84.8828 193.08C85.5006 192.437 86.2571 192.11 87.1396 192.11C88.1861 192.11 88.9804 192.513 89.5225 193.345L89.5099 189.739ZM87.3035 197.67C87.9465 197.67 88.4761 197.443 88.9047 197.014C89.3334 196.585 89.5477 196.043 89.5351 195.4C89.5225 194.757 89.3208 194.228 88.8795 193.799C88.4508 193.37 87.9087 193.156 87.2783 193.156C86.6479 193.156 86.1184 193.383 85.6897 193.812C85.261 194.24 85.0467 194.782 85.0593 195.425C85.0719 196.068 85.2736 196.598 85.7149 197.027C86.131 197.468 86.6731 197.682 87.3035 197.67Z" fill="white"/>
<path d="M93.0653 195.892C93.1788 196.46 93.4309 196.888 93.847 197.204C94.2631 197.519 94.7548 197.67 95.3599 197.657C96.1921 197.657 96.7972 197.342 97.1755 196.724L98.1085 197.254C97.5033 198.212 96.5829 198.679 95.3473 198.691C94.3513 198.691 93.5318 198.389 92.9014 197.758C92.271 197.141 91.9558 196.346 91.9558 195.388C91.9558 194.442 92.2584 193.648 92.8636 193.018C93.4688 192.387 94.2631 192.072 95.2465 192.06C96.1668 192.06 96.9233 192.375 97.5159 193.03C98.0959 193.673 98.3984 194.468 98.3984 195.375C98.3984 195.539 98.3858 195.703 98.3606 195.867L93.0653 195.892ZM95.2339 193.106C94.6413 193.106 94.1622 193.27 93.7713 193.61C93.3805 193.938 93.1536 194.392 93.0527 194.947L97.2637 194.934C97.1629 194.342 96.9359 193.888 96.5451 193.573C96.1795 193.257 95.7382 193.106 95.2339 193.106Z" fill="white"/>
<path d="M100.731 193.27C101.084 192.488 101.739 192.098 102.685 192.085V193.232C102.143 193.207 101.689 193.358 101.298 193.661C100.92 193.976 100.718 194.48 100.718 195.161L100.731 198.502H99.6339L99.6086 192.198H100.706L100.731 193.27Z" fill="white"/>
<path d="M110.048 192.009C110.792 192.009 111.385 192.236 111.826 192.702C112.267 193.169 112.494 193.799 112.507 194.593L112.519 198.464H111.422L111.41 194.656C111.41 194.14 111.271 193.749 110.994 193.471C110.716 193.194 110.326 193.055 109.846 193.055C109.304 193.055 108.863 193.232 108.523 193.572C108.182 193.913 108.018 194.442 108.031 195.148L108.043 198.489H106.947L106.921 192.185H108.018V193.093C108.447 192.374 109.128 192.009 110.048 192.009Z" fill="white"/>
<path d="M119.24 192.135H120.337L120.362 198.439H119.265V197.354C118.723 198.187 117.929 198.603 116.882 198.615C116 198.615 115.243 198.3 114.625 197.657C113.995 197.014 113.68 196.232 113.68 195.312C113.68 194.392 113.982 193.597 114.6 192.954C115.218 192.311 115.974 191.983 116.857 191.983C117.903 191.983 118.698 192.387 119.24 193.219V192.135ZM117.021 197.544C117.664 197.544 118.193 197.329 118.622 196.888C119.051 196.459 119.265 195.917 119.252 195.274C119.24 194.631 119.038 194.102 118.597 193.673C118.168 193.244 117.626 193.03 116.996 193.03C116.365 193.03 115.836 193.257 115.407 193.685C114.978 194.114 114.764 194.656 114.777 195.299C114.789 195.942 114.991 196.472 115.432 196.901C115.848 197.329 116.39 197.544 117.021 197.544Z" fill="white"/>
<path d="M128.796 191.921C129.502 191.921 130.069 192.148 130.511 192.602C130.952 193.056 131.166 193.673 131.179 194.455L131.191 198.376H130.095L130.082 194.493C130.082 194.001 129.956 193.635 129.704 193.358C129.452 193.093 129.111 192.955 128.695 192.955C128.229 192.955 127.85 193.119 127.573 193.434C127.296 193.749 127.157 194.228 127.157 194.884L127.17 198.389H126.073L126.06 194.505C126.06 194.014 125.934 193.648 125.694 193.371C125.455 193.093 125.127 192.967 124.711 192.967C124.244 192.967 123.866 193.131 123.564 193.446C123.261 193.762 123.11 194.253 123.11 194.884L123.122 198.389H122.025L122 192.085H123.097V192.929C123.526 192.249 124.144 191.921 124.976 191.908C125.82 191.908 126.438 192.261 126.829 192.967C127.258 192.286 127.913 191.933 128.796 191.921Z" fill="white"/>
<path d="M133.474 195.728C133.587 196.296 133.839 196.724 134.255 197.04C134.659 197.355 135.163 197.506 135.768 197.506C136.6 197.506 137.205 197.191 137.584 196.573L138.517 197.103C137.912 198.061 136.991 198.54 135.756 198.54C134.76 198.54 133.94 198.237 133.31 197.607C132.679 196.989 132.364 196.195 132.364 195.237C132.364 194.291 132.667 193.497 133.272 192.866C133.877 192.236 134.671 191.921 135.655 191.908C136.575 191.908 137.332 192.223 137.924 192.879C138.504 193.522 138.807 194.304 138.807 195.224C138.807 195.388 138.794 195.552 138.769 195.716L133.474 195.728ZM135.642 192.929C135.05 192.929 134.57 193.106 134.18 193.434C133.789 193.762 133.562 194.215 133.461 194.77L137.672 194.758C137.571 194.165 137.344 193.711 136.953 193.396C136.588 193.081 136.146 192.929 135.642 192.929Z" fill="white"/>
<path d="M308.611 193.635L305.307 193.647L305.32 196.711L309.002 196.698V197.619L304.223 197.644L304.185 189.146L308.775 189.121V190.041L305.282 190.054L305.295 192.74L308.598 192.727L308.611 193.635Z" fill="white"/>
<path d="M310.893 191.505L311.762 192.816C311.989 193.157 312.179 193.472 312.38 193.812H312.418C312.62 193.447 312.822 193.131 313.023 192.804L313.881 191.505H315.078L313.011 194.468L315.167 197.607H313.906L313.011 196.233C312.771 195.88 312.569 195.539 312.355 195.174H312.33C312.128 195.539 311.914 195.867 311.687 196.233L310.804 197.607H309.581L311.737 194.48L309.657 191.505H310.893Z" fill="white"/>
<path d="M316.214 193.471C316.214 192.69 316.189 192.059 316.151 191.479H317.147L317.198 192.526H317.223C317.677 191.782 318.395 191.341 319.379 191.328C320.854 191.328 321.963 192.564 321.976 194.417C321.989 196.611 320.652 197.695 319.215 197.708C318.408 197.708 317.702 197.355 317.336 196.762H317.311L317.324 200.078H316.227L316.214 193.471ZM317.311 195.098C317.311 195.262 317.336 195.413 317.361 195.552C317.563 196.321 318.231 196.85 319.026 196.838C320.198 196.838 320.879 195.867 320.867 194.468C320.867 193.245 320.211 192.198 319.038 192.211C318.282 192.211 317.576 192.765 317.361 193.598C317.324 193.736 317.286 193.9 317.286 194.051L317.311 195.098Z" fill="white"/>
<path d="M324.598 189.727C324.61 190.105 324.333 190.407 323.892 190.407C323.501 190.407 323.224 190.105 323.224 189.727C323.224 189.336 323.514 189.033 323.917 189.033C324.333 189.033 324.598 189.336 324.598 189.727ZM323.4 197.544L323.375 191.441H324.484L324.51 197.544H323.4Z" fill="white"/>
<path d="M326.338 193.345C326.338 192.626 326.325 192.009 326.275 191.441H327.246L327.284 192.639H327.334C327.611 191.82 328.267 191.303 329.011 191.29C329.137 191.29 329.225 191.303 329.326 191.328V192.374C329.213 192.349 329.099 192.336 328.948 192.336C328.166 192.336 327.611 192.929 327.473 193.761C327.447 193.912 327.422 194.089 327.422 194.278L327.435 197.531H326.338V193.345Z" fill="white"/>
<path d="M331.167 191.417L332.516 195.01C332.654 195.414 332.806 195.893 332.906 196.258H332.932C333.045 195.893 333.171 195.426 333.322 194.985L334.52 191.404H335.693L334.054 195.754C333.272 197.847 332.73 198.919 331.973 199.587C331.431 200.066 330.889 200.255 330.612 200.318L330.334 199.385C330.612 199.297 330.977 199.12 331.305 198.843C331.608 198.603 331.986 198.175 332.238 197.607C332.289 197.494 332.326 197.406 332.326 197.343C332.326 197.28 332.301 197.191 332.251 197.053L329.969 191.442L331.167 191.417Z" fill="white"/>
<path d="M339.399 189.097C340.067 188.996 340.862 188.92 341.732 188.908C343.308 188.895 344.43 189.261 345.174 189.954C345.93 190.647 346.384 191.618 346.384 192.992C346.397 194.379 345.968 195.514 345.174 196.296C344.379 197.09 343.068 197.531 341.429 197.531C340.647 197.531 339.992 197.506 339.437 197.443L339.399 189.097ZM340.521 196.598C340.799 196.649 341.202 196.661 341.631 196.661C343.976 196.649 345.237 195.338 345.237 193.043C345.237 191.038 344.102 189.777 341.782 189.777C341.215 189.777 340.786 189.828 340.496 189.891L340.521 196.598Z" fill="white"/>
<path d="M351.163 197.431L351.075 196.662H351.037C350.697 197.141 350.041 197.569 349.171 197.582C347.935 197.582 347.305 196.725 347.292 195.842C347.292 194.367 348.591 193.56 350.949 193.56V193.434C350.949 192.93 350.797 192.022 349.562 192.034C348.995 192.034 348.402 192.211 347.973 192.501L347.721 191.77C348.225 191.442 348.957 191.228 349.726 191.215C351.592 191.202 352.046 192.476 352.058 193.699L352.071 195.981C352.071 196.51 352.096 197.027 352.172 197.443L351.163 197.431ZM350.987 194.316C349.776 194.291 348.402 194.518 348.415 195.703C348.415 196.422 348.894 196.762 349.461 196.762C350.255 196.762 350.76 196.258 350.936 195.729C350.974 195.615 350.999 195.489 350.999 195.376L350.987 194.316Z" fill="white"/>
<path d="M355.109 189.562L355.122 191.315L356.711 191.302V192.147L355.122 192.16L355.135 195.45C355.135 196.207 355.349 196.636 355.967 196.636C356.257 196.636 356.471 196.598 356.61 196.56L356.66 197.392C356.446 197.48 356.105 197.543 355.677 197.543C355.16 197.543 354.744 197.379 354.479 197.077C354.164 196.749 354.05 196.207 354.05 195.488L354.038 192.16H353.092V191.315H354.038V189.852L355.109 189.562Z" fill="white"/>
<path d="M358.513 194.543C358.551 196.043 359.509 196.648 360.619 196.648C361.413 196.648 361.892 196.51 362.308 196.333L362.497 197.128C362.107 197.304 361.438 197.506 360.468 197.518C358.589 197.531 357.467 196.295 357.454 194.455C357.442 192.614 358.526 191.164 360.304 191.151C362.296 191.139 362.825 192.891 362.838 194.013C362.838 194.24 362.813 194.417 362.8 194.53L358.513 194.543ZM361.766 193.736C361.779 193.03 361.464 191.933 360.215 191.946C359.093 191.946 358.602 192.98 358.526 193.749L361.766 193.736Z" fill="white"/>
<path d="M313.289 222.104C312.381 223.378 311.107 224.021 309.456 224.033C307.817 224.033 306.531 223.403 305.61 222.142C304.69 220.869 304.223 219.179 304.223 217.061C304.211 214.943 304.665 213.241 305.572 211.967C306.48 210.694 307.754 210.051 309.405 210.038C311.044 210.026 312.33 210.656 313.251 211.929C314.171 213.203 314.638 214.892 314.638 217.01C314.65 219.129 314.196 220.831 313.289 222.104ZM306.922 220.919C307.514 221.827 308.359 222.281 309.456 222.281C310.553 222.281 311.397 221.814 311.99 220.906C312.582 219.986 312.872 218.7 312.872 217.023C312.872 215.346 312.557 214.06 311.965 213.14C311.36 212.219 310.515 211.766 309.418 211.778C308.321 211.778 307.489 212.245 306.896 213.152C306.304 214.073 306.014 215.371 306.026 217.048C306.026 218.713 306.329 220.011 306.922 220.919Z" fill="white"/>
<path d="M315.974 223.756V222.294L320.714 217.414C321.975 216.141 322.618 215.044 322.606 214.124C322.606 213.367 322.366 212.775 321.9 212.359C321.433 211.93 320.866 211.728 320.198 211.728C318.924 211.728 318.004 212.346 317.424 213.556L315.911 212.674C316.327 211.791 316.92 211.136 317.663 210.682C318.407 210.228 319.239 210.001 320.16 210.001C321.294 210.001 322.278 210.367 323.11 211.11C323.955 211.854 324.371 212.85 324.371 214.111C324.371 215.473 323.576 216.961 321.988 218.574L318.559 222.016L324.661 221.991L324.673 223.731L315.974 223.756Z" fill="white"/>
<path d="M327.182 225.609L326.186 225.634L333.826 208.273L334.835 208.248L327.182 225.609Z" fill="white"/>
<path d="M341.669 215.674C342.703 215.863 343.548 216.305 344.203 216.998C344.859 217.692 345.199 218.574 345.199 219.633C345.199 220.944 344.758 221.978 343.863 222.747C342.968 223.504 341.871 223.895 340.585 223.895C339.563 223.895 338.643 223.668 337.849 223.201C337.054 222.735 336.487 222.054 336.147 221.171L337.647 220.276C338.05 221.524 339.034 222.142 340.585 222.13C341.417 222.13 342.098 221.903 342.627 221.461C343.157 221.02 343.409 220.415 343.409 219.621C343.409 218.839 343.144 218.221 342.615 217.78C342.085 217.339 341.404 217.124 340.572 217.124H340.106L339.387 216.027L342.488 211.791L336.487 211.816L336.475 210.139L344.569 210.102V211.678L341.669 215.674Z" fill="white"/>
<path d="M355.84 221.916C354.933 223.189 353.659 223.832 352.008 223.845C350.356 223.857 349.083 223.214 348.162 221.953C347.242 220.68 346.775 218.991 346.775 216.872C346.763 214.754 347.217 213.052 348.124 211.779C349.032 210.505 350.306 209.862 351.957 209.85C353.609 209.837 354.882 210.48 355.803 211.741C356.723 213.002 357.19 214.704 357.19 216.822C357.19 218.953 356.748 220.642 355.84 221.916ZM349.473 220.73C350.066 221.638 350.911 222.092 352.008 222.092C353.105 222.092 353.949 221.626 354.529 220.718C355.122 219.797 355.412 218.511 355.412 216.835C355.412 215.158 355.097 213.872 354.504 212.951C353.899 212.031 353.054 211.577 351.957 211.59C350.86 211.59 350.028 212.056 349.436 212.964C348.856 213.884 348.553 215.183 348.566 216.86C348.578 218.537 348.881 219.823 349.473 220.73Z" fill="white"/>
<path d="M35.7834 229.456H38.2345V222.422L41.8439 227.609H42.7001L46.3096 222.422V229.456H48.7943V217.05H47.1154L42.2972 224.084L37.4286 217.05H35.7834V229.456ZM57.8479 220.306V221.398C57.1595 220.642 56.2194 220.071 54.9267 220.071C52.3245 220.071 50.3939 222.086 50.3939 224.839C50.3939 227.559 52.2742 229.674 54.9267 229.674C56.2194 229.674 57.1763 229.12 57.8479 228.398V229.456H60.0975V220.306H57.8479ZM55.3128 227.525C53.8019 227.525 52.761 226.333 52.761 224.873C52.761 223.446 53.7851 222.237 55.3128 222.237C56.8238 222.237 57.8814 223.446 57.8814 224.873C57.8814 226.317 56.8238 227.525 55.3128 227.525ZM67.8943 227.055C67.441 227.307 66.9542 227.525 66.3666 227.525C65.4768 227.525 65.0739 226.971 65.0739 225.914V222.287H68.0958V220.306H65.0739V217.066H62.7235V220.306H61.2126V222.287H62.7067V226.065C62.7067 228.432 63.798 229.674 65.8965 229.674C66.8367 229.674 67.8775 229.406 68.5994 228.919L67.8943 227.055ZM75.3916 227.055C74.9383 227.307 74.4514 227.525 73.8639 227.525C72.9741 227.525 72.5712 226.971 72.5712 225.914V222.287H75.593V220.306H72.5712V217.066H70.2208V220.306H68.7099V222.287H70.204V226.065C70.204 228.432 71.2952 229.674 73.3938 229.674C74.3339 229.674 75.3748 229.406 76.0967 228.919L75.3916 227.055ZM84.8314 229.658C87.5511 229.658 89.381 228.079 89.381 225.88C89.381 224.302 88.4745 223.379 87.2657 222.791C86.4263 222.371 85.184 221.901 84.5292 221.599C84.0256 221.347 83.5219 220.995 83.5219 220.374C83.5219 219.669 84.1263 219.182 85.1168 219.182C85.973 219.182 87.0978 219.568 87.8365 220.34L89.1628 218.527C88.0044 217.352 86.527 216.848 85.0833 216.848C82.565 216.848 80.8526 218.426 80.8526 220.474C80.8526 222.019 81.7256 222.942 82.8168 223.563C83.6898 224.05 84.7139 224.352 85.503 224.722C86.1409 225.024 86.6278 225.393 86.6278 226.014C86.6278 226.787 85.8891 227.341 84.8482 227.341C83.5891 227.341 82.3803 226.736 81.5577 225.612L80.1307 227.341C81.1884 228.868 82.9344 229.658 84.8314 229.658ZM96.4078 227.055C95.9546 227.307 95.4677 227.525 94.8801 227.525C93.9903 227.525 93.5874 226.971 93.5874 225.914V222.287H96.6093V220.306H93.5874V217.066H91.2371V220.306H89.7261V222.287H91.2203V226.065C91.2203 228.432 92.3115 229.674 94.41 229.674C95.3502 229.674 96.3911 229.406 97.113 228.919L96.4078 227.055ZM106.745 224.671C106.745 221.767 104.764 220.071 102.162 220.071C99.3083 220.071 97.3944 222.136 97.3944 224.873C97.3944 227.324 98.9389 229.658 102.364 229.658C104.059 229.658 105.486 229.036 106.359 228.398L105.419 226.736C104.647 227.274 103.472 227.66 102.464 227.66C100.903 227.66 100.081 226.82 99.7951 225.712H106.662C106.712 225.377 106.745 225.041 106.745 224.671ZM102.162 222.036C103.371 222.036 104.227 222.774 104.445 223.95H99.7951C100.081 222.758 100.97 222.036 102.162 222.036ZM113.885 220.306L111.635 226.233L109.335 220.306H106.733L110.695 229.439H112.508L116.487 220.306H113.885ZM125.855 224.671C125.855 221.767 123.874 220.071 121.272 220.071C118.418 220.071 116.504 222.136 116.504 224.873C116.504 227.324 118.049 229.658 121.473 229.658C123.169 229.658 124.596 229.036 125.469 228.398L124.529 226.736C123.757 227.274 122.581 227.66 121.574 227.66C120.013 227.66 119.19 226.82 118.905 225.712H125.771C125.822 225.377 125.855 225.041 125.855 224.671ZM121.272 222.036C122.481 222.036 123.337 222.774 123.555 223.95H118.905C119.19 222.758 120.08 222.036 121.272 222.036ZM127.242 229.456H129.609V224.554C129.609 223.177 130.465 222.237 131.708 222.237C132.849 222.237 133.638 223.026 133.638 224.504V229.456H136.006V223.866C136.006 221.28 134.276 220.055 132.43 220.055C131.07 220.055 130.029 220.726 129.559 221.582V220.306H127.242V229.456ZM140.844 229.691C143.077 229.691 144.487 228.415 144.487 226.753C144.487 225.679 143.967 224.974 142.943 224.436C142.221 224.067 141.314 223.765 140.744 223.547C140.139 223.345 139.938 223.026 139.938 222.707C139.938 222.287 140.324 221.935 140.979 221.935C141.6 221.935 142.389 222.187 143.077 222.841L144.252 221.314C143.362 220.39 142.221 220.004 141.046 220.004C138.964 220.004 137.621 221.163 137.621 222.758C137.621 223.815 138.158 224.621 139.199 225.125C139.753 225.41 140.962 225.796 141.465 226.031C141.902 226.233 142.12 226.485 142.12 226.82C142.12 227.341 141.583 227.71 140.861 227.71C139.938 227.71 138.981 227.223 138.326 226.434L137.067 227.928C137.99 229.104 139.384 229.691 140.844 229.691ZM150.259 229.691C153.18 229.691 155.161 227.542 155.161 224.873C155.161 222.237 153.18 220.055 150.259 220.055C147.338 220.055 145.357 222.237 145.357 224.873C145.357 227.542 147.338 229.691 150.259 229.691ZM150.259 227.492C148.832 227.492 147.724 226.333 147.724 224.873C147.724 223.429 148.832 222.271 150.259 222.271C151.686 222.271 152.794 223.429 152.794 224.873C152.794 226.333 151.686 227.492 150.259 227.492ZM156.587 229.456H158.954V224.554C158.954 223.177 159.81 222.237 161.053 222.237C162.194 222.237 162.983 223.026 162.983 224.504V229.456H165.35V223.866C165.35 221.28 163.621 220.055 161.774 220.055C160.415 220.055 159.374 220.726 158.904 221.582V220.306H156.587V229.456Z" fill="white"/>
<defs>
<linearGradient id="paint0_linear_4881_315" x1="99.2613" y1="133.009" x2="314.721" y2="132.076" gradientUnits="userSpaceOnUse">
<stop stop-color="#35C4FE"/>
<stop offset="1" stop-color="#FCEE21"/>
</linearGradient>
</defs>
</svg>
