<svg width="442" height="453" viewBox="0 0 442 453" fill="none" xmlns="http://www.w3.org/2000/svg">
<path opacity="0.15" d="M310.488 75.8633C316.086 84.5644 327.159 100.249 332.706 107.202C340.955 115.323 348.805 122.849 356.245 130.147C364.711 137.126 372.728 144.899 380.417 153.961C389.007 164.003 397.408 176.145 405.664 190.443C414.512 206.119 422.836 223.687 430.1 242.359C436.418 261.025 440.213 279.219 440.504 295.608C437.642 309.765 430.144 320.791 417.951 328.169C410.727 330.95 402.579 332.991 393.67 334.384C384.507 335.562 374.966 336.386 365.254 337.021C355.909 337.952 347.037 339 338.797 340.299C331.379 342.297 324.785 344.71 319.067 347.583C310.419 355.759 304.663 365.447 300.804 375.936C298.335 388.089 295.318 399.505 290.648 409.529C284.389 419.347 275.065 427.236 262.639 433.329C247.819 438.938 230.232 443.173 210.709 446.349C189.928 449.178 168.492 450.952 147.547 451.439C127.228 450.784 108.752 448.033 93.0662 442.678C85.9778 439.149 79.699 434.846 74.3096 429.747C69.4426 424.051 65.4414 417.568 62.301 410.34C59.585 402.613 57.6574 394.456 56.4289 385.974C55.3765 377.249 54.8271 368.395 54.6676 359.525C54.054 341.972 54.0687 325.241 54.0992 309.82C52.4287 295.742 50.2598 283.066 47.508 271.552C42.8357 260.984 37.7348 250.76 32.4703 240.426C25.8465 230.113 19.5763 219.029 14.0782 207.109C8.29787 195.025 4.11272 182.307 2.09358 169.365C1.07844 157.052 3.01051 145.211 8.2291 134.311C13.4827 126.986 28.5914 114.125 38.2019 108.487C44.9713 104.911 52.1301 101.515 59.5436 98.246C66.8695 94.9022 74.3176 91.5566 81.8029 88.1674C95.9013 80.6767 109.739 72.6773 123.075 64.2212C135.034 54.6535 146.831 44.9929 158.563 35.745C169.608 26.259 181.076 17.9777 192.885 11.4046C204.494 5.68707 216.437 2.30583 228.312 1.52149C239.879 2.16366 251.039 5.55222 261.362 11.6077C271.262 18.8869 280.272 28.3647 288.217 39.6069C292.189 45.3258 295.98 51.312 299.591 57.5081C303.322 63.5643 306.953 69.7018 310.48 75.8559" stroke="#333333" stroke-width="2" stroke-linecap="round" stroke-dasharray="5 6"/>
</svg>
