<svg width="367" height="397" viewBox="0 0 367 397" fill="none" xmlns="http://www.w3.org/2000/svg">
<path opacity="0.5" d="M265.662 71.7529C270.776 82.6595 275.923 93.3076 281.191 103.556C287.651 112.95 294.237 122.277 300.937 131.75C308.637 140.951 316.289 150.945 323.776 161.915C331.904 173.314 339.626 186.055 346.688 199.994C353.72 214.297 359.519 229.338 363.615 244.414C366.515 258.694 366.83 271.839 364.045 282.974C359.087 291.982 350.679 298.29 338.957 301.703C325.668 303.434 310.18 303.322 293.492 302.202C277.695 302.103 263.182 302.954 250.521 305.342C240.159 310.465 231.544 317.233 224.199 325.209C218.098 335.075 211.924 345.068 205.025 354.536C197.602 364.314 188.438 372.765 177.407 379.662C165.122 386.028 151.012 390.695 135.605 393.673C119.571 395.855 103.097 396.294 87.0855 394.897C71.739 392.328 57.8888 387.636 46.2744 380.705C36.3345 372.198 29.079 361.3 24.6958 348.135C21.7652 333.699 21.1519 318.224 22.1441 302.31C23.0859 286.287 24.5759 270.484 26.0962 255.253C26.3837 240.622 26.2006 226.638 25.4009 213.292C23.1033 200.49 20.3253 187.959 17.2943 175.576C13.2543 163.457 9.50449 151.25 6.49598 139.031C3.3665 127.196 1.68957 115.562 1.92329 104.493C2.9632 94.3512 6.43482 85.1712 12.6057 77.2377C19.8998 70.5036 29.8151 64.9625 42.178 60.5223C54.9598 56.5552 68.849 53.1112 83.2168 49.8264C96.8706 45.8391 110.504 41.5169 123.757 36.8868C135.9 31.2451 147.698 25.5255 159.047 20.096C169.471 14.2277 179.635 9.27942 189.448 5.68517C198.588 2.45686 207.409 1.12161 215.687 1.89357C223.393 3.50963 230.499 7.35968 236.797 13.3985C242.696 20.1129 247.92 28.6824 252.43 38.8198C257.087 48.9499 261.45 60.0468 265.662 71.7529Z" stroke="#333333" stroke-width="2" stroke-linecap="round" stroke-dasharray="4 4"/>
</svg>
