<svg width="561" height="545" viewBox="0 0 561 545" fill="none" xmlns="http://www.w3.org/2000/svg">
<path opacity="0.24" d="M382.235 61.8816C389.464 67.5935 396.403 72.9727 403.048 77.9679C409.945 82.3204 416.532 86.2691 422.748 89.8112C432.151 94.0826 448.694 100.738 455.576 103.584C466.441 109.812 477.383 123.872 479.943 131.085C481.997 136.734 484.12 143.157 486.491 150.398C489.543 158.336 493.057 167.124 497.117 176.713C501.986 186.968 507.426 197.972 513.409 209.585C519.942 221.685 526.733 234.192 533.564 246.943C540.271 259.777 546.455 272.539 551.758 284.993C556.047 297.066 558.826 308.522 559.787 319.146C559.048 329.043 556.155 337.958 551.064 345.795C544.262 352.899 535.529 359.032 525.162 364.317C513.989 369.239 502.045 373.688 489.853 377.823C478.368 382.29 467.902 386.787 458.848 391.479C451.584 396.951 446.103 402.773 442.388 408.898C440.546 415.842 440.146 422.944 440.897 430.06C442.737 437.641 444.996 444.907 447.303 451.703C450.723 469.066 440.507 485.405 430.836 487.689C422.777 488.911 413.586 489.737 403.41 490.345C392.401 491.209 380.674 492.127 368.432 493.267C355.677 494.931 342.618 496.989 329.399 499.515C315.968 502.652 302.535 506.241 289.195 510.238C275.873 514.671 262.765 519.301 249.982 523.964C237.41 528.634 225.257 532.963 213.625 536.721C202.402 539.933 191.798 542.163 181.881 543.203C172.523 543.197 163.918 541.716 156.091 538.646C148.852 534.353 142.365 528.447 136.628 520.988C131.329 512.555 126.744 503.095 122.746 492.892C118.896 482.39 115.446 471.64 112.29 460.909C108.986 450.565 105.832 440.641 102.785 431.32C99.4078 422.845 96.0671 415.155 92.7656 408.301C87.2509 399.872 76.0791 387.862 70.6127 383.662C64.8397 380.395 53.9385 373.912 48.8094 369.915C43.3636 365.082 32.7714 351.645 27.5569 342.884C23.8326 336.382 20.2771 329.226 16.9506 321.504C13.5032 313.464 10.3974 304.973 7.74578 296.144C5.244 287.207 3.38337 278.105 2.25553 268.942C1.5844 259.884 1.81677 250.918 3.03959 242.159C4.87833 233.626 7.75621 225.36 11.6496 217.412C16.1029 209.704 21.4623 202.278 27.6251 195.138C34.0021 188.082 40.773 181.354 47.7491 174.87C54.5099 168.277 61.2247 161.813 67.798 155.413C73.8617 148.745 79.6886 142.071 85.2626 135.371C90.2888 128.349 95.1343 121.309 99.8551 114.238C104.216 106.904 108.649 99.6027 113.24 92.3723C117.747 84.9654 122.63 77.7026 127.936 70.6179C133.442 63.5098 139.508 56.6411 146.162 50.0879C153.16 43.6133 160.783 37.5092 168.964 31.8195C177.513 26.3462 186.55 21.357 195.985 16.9121C205.684 12.8009 215.655 9.29047 225.783 6.46787C235.99 4.08421 246.222 2.45534 256.364 1.61683C266.439 1.31571 276.312 1.85575 285.917 3.24479C295.353 5.17538 304.473 7.94659 313.226 11.5348C321.831 15.5352 330.079 20.2443 337.978 25.5896C345.816 31.0968 353.379 37.047 360.653 43.3329C368.027 49.4502 375.216 55.6728 382.224 61.8769" stroke="#333333" stroke-width="2" stroke-linecap="round" stroke-dasharray="7 2"/>
</svg>
