<svg width="680" height="682" viewBox="0 0 680 682" fill="none" xmlns="http://www.w3.org/2000/svg">
<path opacity="0.17" d="M366.92 23.2278C378.086 26.3887 389.4 29.2492 400.822 31.7257C412.322 33.2635 423.905 34.4271 435.485 35.3255C447.07 35.4873 458.552 35.6419 469.807 35.9186C480.871 35.963 491.51 36.4726 501.553 37.608C511.176 38.9786 519.942 41.2215 527.7 44.3721C534.774 48.0847 540.625 52.8049 545.129 58.4896C548.887 64.7895 551.304 71.985 552.421 79.9869C553.086 88.4983 552.807 97.6685 551.856 107.378C551.25 117.435 550.694 127.91 550.622 138.719C552.01 149.723 554.658 160.977 558.973 172.44C565.492 184.002 573.969 195.726 584.35 207.56C596.585 219.399 610.036 231.301 624.096 243.212C638.189 254.998 651.341 266.729 662.613 278.338C671.566 289.681 677.178 300.868 678.925 311.851C677.192 322.53 671.531 333.059 662.354 343.467C651.105 353.716 638.09 364.002 624.483 374.373C612.192 384.848 601.847 395.334 594.23 405.852C590.201 416.588 589.382 427.367 591.504 438.077C596.577 448.927 603.278 459.546 610.673 469.787C618.526 479.912 625.271 489.417 630.134 498.179C633.193 506.548 633.37 514 630.554 520.435C625.23 526.358 617.1 531.242 606.616 535.051C594.387 538.459 580.705 540.925 566.149 542.546C551.174 544.068 536.217 545.015 521.655 545.587C507.688 546.535 494.56 547.508 482.348 548.719C471.104 550.896 460.736 553.722 451.136 557.408C442.347 562.5 434.033 568.684 426.007 576.006C418.456 584.766 410.892 594.515 403.181 605.049C395.653 616.414 387.801 627.963 379.541 639.252C371.374 650.203 362.759 659.994 353.698 668.129C344.727 674.647 335.35 678.764 325.566 680.157C315.932 679.281 305.921 675.58 295.574 669.126C285.352 660.918 275.003 650.917 264.576 639.735C254.188 628.326 243.692 616.817 233.107 605.751C222.528 595.906 211.88 587.208 201.237 579.904C190.623 574.467 180.089 570.499 169.761 567.869C159.569 566.896 149.705 566.821 140.294 567.342C131.191 568.715 122.667 570.047 114.836 571.037C104.053 572.061 86.8554 568.209 80.2919 562.655C76.2325 557.682 72.655 551.429 69.4367 544.004C65.9509 535.8 62.5585 526.601 59.1564 516.561C55.1833 505.962 51.024 494.739 46.6565 483.041C41.6429 471.033 36.4761 458.749 31.2608 446.334C25.6985 433.781 20.3776 421.232 15.488 408.772C10.8048 396.326 6.91555 384.052 4.02338 372.009C1.81631 360.049 0.800299 348.346 1.05231 336.951C2.04835 325.621 4.17491 314.589 7.31739 303.847C10.7455 293.138 14.6799 282.924 18.9011 273.215C22.7237 263.443 26.4688 254.114 29.9991 245.22C32.7886 236.216 35.3312 227.608 37.6523 219.366C39.3718 211 41.125 202.97 43.0742 195.265C44.8971 187.39 47.2531 179.795 50.296 172.421C53.734 164.833 58.106 157.391 63.4487 150.064C69.4591 142.416 76.4925 134.794 84.4606 127.145C93.0544 119.115 102.436 111.014 112.482 102.81C122.898 94.2524 133.746 85.6214 144.893 76.977C156.09 68.1289 167.405 59.4042 178.747 50.9463C189.91 42.5679 200.993 34.679 211.971 27.4622C222.651 20.708 233.233 14.8681 243.703 10.103C253.88 6.07709 264.016 3.28056 274.13 1.77229C284.028 1.04336 293.99 1.52813 304.087 3.18564C314.038 5.29341 324.215 8.28083 334.642 11.9539C345.056 15.4993 355.795 19.3212 366.909 23.227" stroke="#333333" stroke-width="2" stroke-linecap="round" stroke-dasharray="5 9"/>
</svg>
