<svg width="506" height="497" viewBox="0 0 506 497" fill="none" xmlns="http://www.w3.org/2000/svg">
<path opacity="0.95" d="M352.087 72.6928C357.491 78.6539 362.649 84.2957 367.559 89.577C375.238 96.5832 389.777 108.065 396.527 112.716C403.286 116.707 415.378 124.194 420.723 128.187C426.031 132.646 435.907 144.237 440.804 151.794C444.416 157.559 448.093 164.059 451.922 171.307C456.147 179.132 460.565 187.704 465.166 196.976C470.103 206.747 475.132 217.106 480.177 227.91C485.251 238.991 490.082 250.285 494.474 261.627C498.423 272.853 501.567 283.827 503.689 294.332C504.83 304.324 504.618 313.597 502.89 321.979C499.86 329.604 495.22 336.252 488.976 341.844C481.572 346.757 472.831 350.756 462.967 353.949C452.621 356.851 441.752 359.313 430.71 361.49C420.183 363.991 410.397 366.568 401.62 369.375C390.943 374.95 378.076 389.401 375.436 398.021C375.008 407.701 376.285 426.846 376.522 435.56C375.576 443.607 368.091 456.149 361.074 460.708C355.118 463.397 348.102 465.633 340.085 467.52C331.235 469.412 321.536 471.119 311.119 472.739C300.071 474.517 288.478 476.317 276.495 478.197C264.148 480.268 251.591 482.41 238.988 484.605C226.295 486.878 213.723 489.065 201.434 491.064C189.323 492.89 177.651 494.301 166.565 495.171C155.872 495.529 145.899 495.092 136.755 493.752C128.151 491.625 120.444 488.422 113.674 484.083C107.497 478.871 102.22 472.515 97.8578 465.079C93.9403 456.918 90.8606 448.078 88.5082 438.732C86.318 429.109 84.6366 419.305 83.3473 409.504C81.9378 399.871 80.7448 390.498 79.6859 381.537C78.2882 373.067 76.9131 365.142 75.5202 357.804C72.705 348.03 66.0622 332.123 62.2512 325.621C57.7014 319.942 47.9946 309.179 42.9296 303.541C37.3797 297.488 26.3875 283.085 21.1263 274.577C17.5174 268.528 14.2166 262.036 11.2795 255.162C8.36149 248.15 5.94666 240.858 4.10043 233.356C2.49393 225.883 1.60621 218.348 1.51235 210.825C1.85693 203.513 3.09344 196.316 5.27855 189.338C7.98688 182.651 11.6448 176.224 16.24 170.078C21.2782 164.199 27.1444 158.558 33.7715 153.154C40.5795 147.85 47.7626 142.771 55.1919 137.86C62.472 132.842 69.8007 127.854 77.0843 122.852C83.9762 117.588 90.7382 112.228 97.3158 106.752C103.44 100.961 109.411 95.0468 115.24 89.0561C120.702 82.765 126.141 76.4459 131.602 70.1548C136.85 63.6873 142.262 57.3241 147.867 51.1507C153.464 44.9457 159.359 39.0236 165.564 33.4477C171.891 28.0029 178.566 22.9958 185.578 18.4875C192.743 14.2527 200.211 10.5907 207.921 7.55718C215.733 4.90045 223.714 2.92168 231.775 1.67398C239.854 0.872045 247.913 0.832287 255.875 1.54696C263.763 2.74464 271.475 4.71459 278.931 7.43323C286.275 10.5848 293.328 14.4349 300.045 18.9431C306.665 23.7565 312.982 29.1125 318.951 34.9548C324.916 40.8897 330.611 47.1434 336.024 53.6269C341.571 59.9638 346.912 66.347 352.077 72.6867" stroke="#5A42ED" stroke-width="2" stroke-linecap="round" stroke-dasharray="3 1"/>
</svg>
