<svg width="634" height="628" viewBox="0 0 634 628" fill="none" xmlns="http://www.w3.org/2000/svg">
<path opacity="0.72" d="M390.017 37.6405C399.86 42.1394 409.622 46.3623 419.274 50.2209C429.081 53.2436 438.743 55.9059 448.158 58.2448C457.629 59.8793 466.731 61.3756 475.34 62.8132C483.814 63.8928 491.621 65.1816 498.613 66.7652C508.119 69.4412 521.366 78.1137 524.936 84.4143C527.005 92.1785 527.325 112.139 526.847 124.267C527.271 133.123 528.164 142.644 529.869 152.762C532.985 163.418 537.328 174.655 543.04 186.409C550.361 198.603 558.982 211.205 568.71 224.115C579.358 237.235 590.371 250.456 601.173 263.621C611.385 276.635 620.209 289.328 627.005 301.561C631.584 313.283 633.235 324.365 631.658 334.718C627.345 344.461 619.952 353.553 609.86 362.031C598.308 370.195 585.422 378.061 572.073 385.781C559.792 393.73 549.031 401.711 540.393 409.82C534.569 418.497 531.337 427.367 530.592 436.36C532.423 445.835 535.923 455.199 540.474 464.26C545.926 473.397 551.105 481.888 555.391 489.564C559.531 499.994 554.95 514.484 545.804 518.5C537.274 520.417 527.08 521.435 515.569 521.748C503.082 522.062 489.912 522.007 476.391 521.829C462.667 522.16 449.032 522.733 435.683 523.779C422.585 525.795 409.912 528.561 397.69 532.187C385.853 537.024 374.402 542.801 363.268 549.457C352.461 557.159 341.855 565.514 331.396 574.277C321.186 583.47 311.052 592.526 300.99 601.081C291.19 609.128 281.473 615.97 271.836 621.233C262.562 625.081 253.423 626.819 244.442 626.242C235.856 623.822 227.416 619.025 219.116 611.932C211.135 603.415 203.369 593.347 195.804 582.229C188.328 570.812 180.913 559.163 173.527 547.707C166.06 537.068 158.574 527.224 151.095 518.392C143.455 511.018 135.866 504.83 128.417 499.799C120.865 496.227 113.568 493.603 106.637 491.738C96.5349 490.579 79.1627 489.516 72.1205 488.332C65.7791 486.183 55.5713 476.707 51.2317 469.066C48.0732 462.983 44.9938 455.93 41.9268 447.998C38.3546 439.465 34.7098 430.175 30.9881 420.259C26.8399 409.921 22.7119 399.107 18.7076 387.99C14.5846 376.659 10.8669 365.192 7.69235 353.713C4.8604 342.225 2.88046 330.873 1.89529 319.758C1.60006 308.767 2.43838 298.079 4.44311 287.759C7.12415 277.572 10.8457 267.738 15.4905 258.255C20.396 248.816 25.7386 239.859 31.2936 231.335C36.5165 222.717 41.6334 214.428 46.523 206.431C50.7396 198.231 54.6577 190.272 58.2755 182.507C61.2838 174.517 64.1812 166.715 67.0761 159.088C69.7352 151.247 72.6984 143.576 76.1075 136.072C79.711 128.375 84.0444 120.834 89.1552 113.448C94.7893 105.87 101.336 98.4167 108.763 91.082C116.802 83.5734 125.685 76.1871 135.304 68.9239C145.417 61.555 156.115 54.3589 167.247 47.3852C178.64 40.4557 190.298 33.877 202.072 27.7461C213.868 21.8903 225.638 16.6515 237.296 12.1524C248.785 8.16912 260.078 5.09559 271.141 3.04171C281.944 1.64882 292.504 1.33173 302.812 2.13539C312.893 3.55994 322.779 6.00016 332.504 9.40468C342.102 13.1341 351.642 17.5679 361.154 22.5714C370.688 27.4152 380.291 32.4853 389.994 37.6356" stroke="#333333" stroke-width="2" stroke-linecap="round" stroke-dasharray="11 2"/>
</svg>
