<svg width="328" height="362" viewBox="0 0 328 362" fill="none" xmlns="http://www.w3.org/2000/svg">
<path opacity="0.45" d="M243.373 69.0897C247.338 79.6418 251.472 90.2243 255.846 100.724C261.327 110.534 267.055 120.516 272.964 130.751C279.807 140.732 286.655 151.419 293.302 162.883C300.47 174.497 307.12 187.058 312.948 200.322C318.626 213.542 322.93 226.99 325.452 240.039C326.913 252.063 325.933 262.774 322.207 271.45C316.776 278.206 308.431 282.52 297.336 284.325C285.122 284.744 271.021 283.628 255.767 281.688C241.212 280.66 227.443 280.506 214.932 281.746C204.158 285.404 194.605 290.616 186 297.083C178.472 305.389 170.969 314.067 163.019 322.522C154.898 331.47 145.567 339.407 134.935 345.967C123.583 352.137 110.905 356.633 97.3524 359.367C83.5093 361.325 69.4486 361.394 55.8846 359.563C43.0464 356.639 31.5465 351.647 21.9906 344.527C13.9447 336.149 8.21488 325.617 4.9725 313.063C3.0316 299.526 3.10447 285.008 4.58521 270.005C6.12854 254.838 8.1909 239.65 10.3208 224.757C11.494 210.221 12.2829 196.052 12.557 182.307C11.6019 168.998 10.2472 155.923 8.67921 143.098C6.28771 130.615 4.16211 118.29 2.71755 106.268C1.18247 94.8081 0.937412 83.8786 2.36925 73.7767C4.46211 64.688 8.65097 56.728 15.1679 50.1242C22.5587 44.6598 32.2168 40.4534 44.0009 37.3962C56.1276 34.7856 69.2395 32.7803 82.8 31.0391C95.8325 28.7037 108.856 26.187 121.556 23.4554C133.304 19.8035 144.647 16.1145 155.435 12.6634C165.316 8.69131 174.734 5.49381 183.546 3.41252C191.618 1.47927 199.144 1.1372 205.972 2.6039C212.183 4.58725 217.718 8.5216 222.452 14.3738C226.831 20.6709 230.588 28.6474 233.765 38.0959C237.091 47.4738 240.255 57.8875 243.373 69.0897Z" stroke="#333333" stroke-width="2" stroke-linecap="round" stroke-dasharray="1 6"/>
</svg>
