<svg width="475" height="475" viewBox="0 0 475 475" fill="none" xmlns="http://www.w3.org/2000/svg">
<path opacity="0.6" d="M331.259 75.3024C335.817 81.2402 340.18 86.92 344.355 92.2753C351.002 99.5225 363.884 111.845 370.079 117.09C376.466 121.764 388.514 130.762 394.2 135.518C400.033 140.712 411.397 153.585 417.127 161.612C421.227 167.612 425.344 174.266 429.519 181.576C433.956 189.364 438.44 197.787 442.932 206.799C447.569 216.176 452.102 226.004 456.457 236.171C460.666 246.459 464.458 256.867 467.686 267.189C470.391 277.311 472.247 287.094 473.081 296.367C473.016 305.077 471.706 313.057 469.046 320.157C465.298 326.527 460.168 331.966 453.696 336.416C446.297 340.227 437.788 343.221 428.361 345.467C418.565 347.456 408.332 349.052 397.955 350.399C387.996 352.068 378.642 353.827 370.099 355.84C359.346 360.177 344.838 372.249 340.807 379.837C338.762 388.659 337.05 406.913 336.179 415.672C334.581 424.082 327.126 438.122 320.74 443.677C315.428 447.056 309.157 449.956 301.994 452.457C294.089 454.883 285.368 457.021 275.924 458.941C265.896 460.859 255.306 462.649 244.297 464.33C232.923 466.042 221.296 467.653 209.568 469.147C197.751 470.589 186.023 471.813 174.541 472.76C163.211 473.463 152.307 473.723 141.963 473.455C131.996 472.693 122.729 471.234 114.276 468.977C106.353 466.04 99.3023 462.19 93.1941 457.408C87.6376 451.877 82.9918 445.418 79.2432 438.051C75.9397 430.099 73.4791 421.583 71.7386 412.67C70.1659 403.509 69.1179 394.179 68.4812 384.852C67.7282 375.625 67.2088 366.584 66.8372 357.865C66.1332 349.501 65.4513 341.553 64.7438 334.085C62.9453 323.817 58.0787 306.227 55.0037 298.642C51.0868 291.736 42.2644 278.608 37.4949 271.93C32.2269 264.999 21.7754 249.531 16.8366 240.873C13.5135 234.847 10.5232 228.523 7.928 221.933C5.40581 215.284 3.40145 208.473 2.00253 201.537C0.643091 191.293 2.37573 171.443 5.7303 162.158C8.73443 156.353 12.6416 150.813 17.4221 145.56C22.5954 140.567 28.5521 135.808 35.2322 131.269C42.0787 126.851 49.2992 122.624 56.785 118.52C64.153 114.344 71.6105 110.163 79.0631 105.95C86.1828 101.491 93.2186 96.9136 100.122 92.2248C106.614 87.2043 112.991 82.0699 119.228 76.8333C125.099 71.299 130.916 65.7238 136.706 60.1443C142.257 54.3877 147.879 48.7269 153.602 43.2399C159.212 37.7125 165.01 32.4522 171.006 27.5234C176.997 22.7187 183.219 18.3553 189.648 14.4864C196.122 10.8652 202.793 7.83047 209.614 5.40555C216.449 3.34811 223.387 1.96523 230.343 1.29446C237.27 1.03063 244.151 1.48865 250.907 2.69679C257.587 4.31918 264.089 6.66689 270.345 9.71756C276.501 13.1367 282.4 17.1946 287.997 21.8571C293.516 26.7616 298.75 32.1696 303.703 37.9981C308.665 43.891 313.384 50.0754 317.871 56.4596C322.485 62.7093 326.943 69.0156 331.25 75.2956" stroke="#333333" stroke-width="2" stroke-linecap="round" stroke-dasharray="10 7"/>
</svg>
