<svg width="657" height="656" viewBox="0 0 657 656" fill="none" xmlns="http://www.w3.org/2000/svg">
<path opacity="0.55" d="M380.574 30.3644C391.126 34.2526 401.72 37.845 412.331 41.0686C423.044 43.4133 433.716 45.3924 444.279 47.0776C454.849 48.0561 465.164 48.952 475.091 49.8856C484.852 50.5171 494.032 51.4838 502.473 52.9142C514.046 55.5781 531.125 65.2197 536.216 72.4284C538.655 78.0538 539.946 84.4909 540.202 91.6745C540.305 99.3701 539.776 107.753 538.91 116.715C538.661 126.148 538.722 136.1 539.491 146.536C541.751 157.345 545.305 168.594 550.433 180.205C557.489 192.125 566.208 204.35 576.424 216.812C588.025 229.412 600.388 242.12 612.913 254.827C625.131 267.411 636.145 279.811 645.159 291.916C651.885 303.627 655.46 314.901 655.459 325.692C652.359 336.007 645.759 345.884 636.049 355.354C624.599 364.577 611.594 373.637 598.069 382.682C585.717 391.881 575.1 401.118 566.898 410.431C561.872 420.171 559.762 430.047 560.354 439.936C563.729 450.161 568.777 460.206 574.712 469.89C581.373 479.526 587.373 488.511 592.018 496.654C595.803 507.75 587.743 523.662 575.962 528.429C565.562 530.828 553.561 532.327 540.429 533.05C526.555 533.76 512.315 534.036 498.07 534.091C484.01 534.647 470.402 535.372 457.409 536.498C445.038 538.64 433.339 541.528 422.281 545.295C411.821 550.4 401.842 556.537 392.184 563.682C382.939 572.081 373.812 581.286 364.694 591.084C355.815 601.484 346.809 611.878 337.639 621.877C328.662 631.416 319.493 639.768 310.153 646.471C301.04 651.652 291.799 654.551 282.431 654.915C273.351 653.244 264.157 648.945 254.857 642.125C245.784 633.701 236.762 623.614 227.773 612.394C218.869 600.908 209.909 589.24 200.93 577.871C191.888 567.514 182.779 558.122 173.676 549.915C164.497 543.379 155.387 538.164 146.435 534.201C137.514 531.821 128.89 530.376 120.69 529.618C108.94 530.004 88.9322 530.853 80.919 529.924C73.9295 527.505 63.0058 516.266 58.5206 507.322C55.3222 500.266 52.2073 492.212 49.0673 483.273C45.3842 473.747 41.5591 463.504 37.5824 452.694C33.0579 441.493 28.4616 429.9 23.8862 418.077C19.0945 406.061 14.592 393.969 10.5948 381.915C6.86555 369.853 3.96176 357.942 2.05568 346.278C0.832005 334.71 0.78478 323.437 1.95304 312.511C3.83622 301.698 6.80002 291.201 10.747 281.052C14.9556 270.94 19.6373 261.336 24.5534 252.207C29.1088 243.003 33.5638 234.179 37.8031 225.731C41.3111 217.12 44.5417 208.831 47.5093 200.84C49.8545 192.657 52.1496 184.745 54.5376 177.078C56.732 169.221 59.3474 161.586 62.5235 154.171C65.9999 146.519 70.3098 139.044 75.4955 131.693C81.2984 124.082 88.076 116.551 95.7895 109.048C104.131 101.287 113.32 93.5294 123.215 85.7797C133.573 77.7939 144.457 69.8597 155.733 62.0275C167.171 54.1139 178.821 46.4276 190.545 39.1116C202.2 31.9598 213.797 25.3798 225.294 19.5051C236.548 14.1179 247.646 9.66007 258.562 6.24378C269.191 3.54094 279.657 1.98682 289.985 1.64312C300.076 1.99658 310.086 3.48731 320.062 6.04055C329.913 8.98217 339.826 12.71 349.845 17.0795C359.861 21.3093 370.097 25.7906 380.551 30.3612" stroke="#5A42ED" stroke-width="2" stroke-linecap="round" stroke-dasharray="7 9"/>
</svg>
