<svg width="703" height="703" viewBox="0 0 703 703" fill="none" xmlns="http://www.w3.org/2000/svg">
<path opacity="0.34" d="M349.688 17.0656C361.336 19.455 373.225 21.4883 385.322 23.1081C397.418 23.7284 409.733 23.9696 422.162 23.9352C434.58 23.1655 447.067 22.4303 459.497 21.9019C471.777 21.2126 483.85 21.1092 495.533 21.764C506.837 22.7979 517.486 24.8657 527.25 28.0247C536.325 31.8615 544.251 36.8701 550.811 42.9929C556.463 49.8165 560.61 57.651 563.229 66.3585C565.078 75.583 565.63 85.4737 565.124 95.9044C564.619 106.576 563.769 117.581 563.068 128.793C563.642 140.016 565.354 151.32 568.674 162.647C574.395 173.813 582.31 184.967 592.476 196.064C604.974 206.965 619.173 217.833 634.474 228.688C650.247 239.36 665.41 250.067 678.896 260.842C690.085 271.479 697.839 282.243 701.458 293.168C701.217 304.012 696.633 315.063 688.098 326.332C677.173 337.578 664.25 349.077 650.672 360.829C638.529 372.569 628.604 384.287 621.746 395.946C618.874 407.583 619.552 419.128 623.377 430.489C630.293 441.793 638.748 452.844 647.639 463.562C656.657 474.107 664.055 484.193 669.029 493.716C671.648 502.929 670.901 511.442 666.743 519.138C659.793 526.421 649.89 532.774 637.633 538.139C623.768 543.067 608.696 547.019 593.085 549.994C577.473 552.716 562.287 554.658 547.893 555.967C534.533 557.449 522.333 558.69 511.294 559.942C501.529 562.01 492.753 564.583 484.781 567.926C477.75 572.682 471.145 578.586 464.723 585.731C458.784 594.485 452.685 604.456 446.252 615.461C439.956 627.523 433.133 640.021 425.689 652.485C418.222 664.731 410.077 675.931 401.243 685.523C392.352 693.415 382.783 698.803 372.582 701.319C362.324 701.342 351.468 698.32 340.05 692.37C328.62 684.478 316.937 674.691 305.07 663.686C293.238 652.508 281.245 641.342 269.172 630.797C257.179 621.664 245.151 613.922 233.158 607.776C221.315 603.698 209.598 601.228 198.099 600.171C186.841 600.814 175.928 602.285 165.451 604.203C155.354 606.834 145.819 609.166 136.962 610.855C128.565 612.279 120.903 612.509 114.033 611.394C107.589 609.407 101.879 605.88 96.8822 600.86C92.0804 594.841 87.7841 587.432 83.9243 578.793C79.8462 569.362 75.9175 558.954 72.0003 547.777C67.5086 536.128 62.8332 523.963 57.9166 511.488C52.3107 498.794 46.4865 485.962 40.5475 473.108C34.1834 460.23 27.9916 447.433 22.1675 434.786C16.5041 422.172 11.599 409.743 7.69322 397.543C4.45375 385.378 2.43195 373.419 1.71973 361.702C1.7427 350.008 2.96038 338.52 5.24639 327.274C7.79661 316.016 10.9212 305.253 14.3675 294.971C17.3887 284.667 20.3525 274.822 23.1554 265.46C25.2002 256.052 27.0382 247.091 28.7383 238.568C29.8641 229.986 31.1277 221.796 32.69 213.984C34.2064 206.035 36.4005 198.396 39.3987 191.009C42.8565 183.393 47.3596 175.926 52.9195 168.551C59.1572 160.82 66.4288 153.066 74.6194 145.255C83.3729 136.961 92.8501 128.517 102.89 119.913C113.148 110.827 123.728 101.579 134.492 92.2284C145.164 82.5444 155.848 72.8949 166.485 63.4062C176.835 53.9175 187.094 44.8424 197.26 36.3876C207.082 28.3464 216.881 21.2126 226.668 15.1472C236.18 9.86298 245.783 5.85384 255.548 3.18874C265.105 1.37371 274.915 0.868262 285.024 1.59197C295.019 2.86709 305.369 5.0612 316.133 7.99051C326.85 10.8164 338.028 13.9181 349.676 17.0656" stroke="#5A42ED" stroke-width="2" stroke-linecap="round" stroke-dasharray="2 5"/>
</svg>
