<svg width="586" height="571" viewBox="0 0 586 571" fill="none" xmlns="http://www.w3.org/2000/svg">
<path opacity="0.07" d="M390.259 54.066C398.411 59.4889 406.311 64.5988 413.936 69.3259C421.793 73.355 429.335 76.9747 436.519 80.2053C447.288 83.9717 466.228 89.8143 474.013 92.4093C485.592 98.5666 495.363 113.227 496.788 120.765C497.989 126.617 499.195 133.254 500.612 140.68C502.804 148.794 505.538 157.731 508.964 167.45C513.444 177.862 518.756 189.009 524.898 200.792C531.926 213.097 539.539 225.874 547.495 238.948C555.635 252.188 563.466 265.437 570.57 278.467C576.73 291.199 581.362 303.394 584.073 314.856C584.871 325.628 583.267 335.479 579.109 344.317C572.932 352.424 564.471 359.617 554.04 365.976C542.629 371.973 530.272 377.513 517.611 382.781C505.759 388.347 495.083 393.943 486.048 399.701C479.109 406.218 474.204 413.03 471.322 420.098C470.544 427.902 471.333 435.769 473.286 443.538C476.314 451.642 479.618 459.296 482.727 466.315C486.472 483.385 472.727 497.753 461.037 499.119C451.597 499.759 441.077 500.038 429.705 500.175C417.612 500.67 405.006 501.332 392.083 502.355C378.837 504.091 365.508 506.385 352.193 509.307C338.826 513.067 325.588 517.475 312.539 522.466C299.602 528.086 286.905 534.051 274.509 540.164C262.349 546.4 250.55 552.353 239.161 557.723C228.146 562.544 217.636 566.291 207.658 568.691C198.196 569.922 189.332 569.464 181.098 567.157C173.41 563.434 166.31 557.848 159.792 550.443C153.694 541.933 148.164 532.211 143.122 521.629C138.206 510.738 133.586 499.576 129.189 488.472C124.652 477.879 120.205 467.809 115.834 458.465C111.165 450.162 106.541 442.769 102.008 436.327C94.7664 428.828 80.7616 419.085 74.2485 416.028C62.045 411.403 46.0389 400.679 41.2434 394.484C37.7591 389.615 34.3731 383.914 31.0764 377.438C27.4175 370.449 23.8536 362.736 20.4108 354.394C16.7614 345.683 13.3455 336.47 10.2863 326.886C7.30812 317.149 4.8921 307.214 3.16423 297.239C1.86415 287.299 1.46559 277.47 2.04973 267.831C3.29262 258.398 5.6022 249.26 8.98135 240.442C12.9642 231.846 17.8862 223.558 23.649 215.58C29.6491 207.69 36.0373 200.174 42.6305 192.967C48.9689 185.654 55.2251 178.53 61.2993 171.536C66.8072 164.284 72.0439 157.104 76.9958 149.966C81.361 142.527 85.5583 135.111 89.6484 127.754C93.4127 120.118 97.316 112.569 101.453 105.119C105.606 97.4913 110.226 90.0233 115.408 82.7252C120.909 75.3606 127.1 68.2135 133.986 61.3096C141.346 54.4457 149.421 47.8691 158.154 41.6327C167.315 35.5294 177.049 29.8326 187.231 24.5821C197.706 19.5987 208.474 15.1513 219.408 11.316C230.446 7.89812 241.486 5.20363 252.438 3.28415C263.3 1.90707 273.964 1.39981 284.342 1.80321C294.532 2.78594 304.41 4.6822 313.925 7.49768C323.255 10.7836 332.273 14.8848 340.944 19.7277C349.545 24.7647 357.91 30.3396 366.026 36.3248C374.232 42.1346 382.298 48.0892 390.248 54.062" stroke="#5A42ED" stroke-width="2" stroke-linecap="round" stroke-dasharray="7 3"/>
</svg>
