<svg width="303" height="323" viewBox="0 0 303 323" fill="none" xmlns="http://www.w3.org/2000/svg">
<path opacity="0.12" d="M237.823 67.1499C240.757 77.2849 243.904 87.679 247.347 98.2081C251.761 108.206 256.457 118.527 261.33 129.158C267.026 139.535 272.703 150.488 278.146 161.981C283.994 173.4 289.253 185.387 293.631 197.625C297.797 209.521 300.601 221.229 301.691 232.197C301.896 242.056 299.925 250.475 295.564 256.962C289.961 261.735 281.921 264.361 271.599 264.844C260.517 264.219 247.797 262.322 233.958 259.732C220.658 257.957 207.733 256.938 195.581 257.131C184.706 259.383 174.603 263.054 165.164 267.897C156.6 274.462 148.084 281.517 139.34 288.558C130.662 296.243 121.204 303.163 110.952 308.943C100.372 314.498 88.9802 318.51 77.1114 320.842C65.2328 322.491 53.375 322.296 42.0895 320.195C31.5631 317.18 22.2561 312.175 14.6496 305.18C8.37275 297.197 4.07026 287.263 1.89459 275.485C0.869235 262.946 1.57168 249.459 3.49353 235.442C5.56587 221.257 8.1553 206.855 10.856 192.516C12.8739 178.395 14.6266 164.435 15.9927 150.744C16.4236 137.409 16.5446 124.292 16.5272 111.487C15.8517 99.103 15.4454 87.0642 15.6071 75.5727C15.7181 64.7341 16.925 54.6585 19.5133 45.6118C22.6134 37.59 27.4571 30.812 34.2096 25.4442C41.6329 21.134 50.9399 18.1128 62.0259 16.2846C73.3809 14.8845 85.558 14.1666 98.1064 13.8231C110.249 12.9904 122.398 12.1258 134.232 11.1802C145.299 9.40603 155.926 7.63316 165.918 6.08691C175.09 3.96678 183.655 2.46847 191.489 1.86545C201.781 1.52485 217.707 8.38073 223.335 16.0487C226.505 21.9536 229.121 29.3536 231.223 38.1245C233.499 46.7815 235.655 56.5085 237.823 67.1499Z" stroke="#5A42ED" stroke-width="2" stroke-linecap="round" stroke-dasharray="11 9"/>
</svg>
