<svg width="610" height="599" viewBox="0 0 610 599" fill="none" xmlns="http://www.w3.org/2000/svg">
<path opacity="0.09" d="M393.118 46.1292C402.151 51.1509 411.006 55.8816 419.647 60.2391C428.489 63.8178 437.08 67.0248 445.355 69.8772C453.719 72.0498 461.646 73.9998 469.025 75.8152C479.648 77.9963 496.688 83.0417 502.75 86.4727C507.425 90.7696 512.103 103.105 512.724 111.322C513.221 117.613 513.571 124.663 514.046 132.432C515.315 140.848 517.141 150.025 519.766 159.911C523.649 170.449 528.581 181.661 534.628 193.483C541.938 205.816 550.179 218.609 559.135 231.741C568.594 245.078 578.069 258.481 587.031 271.758C595.196 284.816 601.87 297.442 606.539 309.439C609.13 320.847 609.041 331.43 606.063 341.127C600.717 350.127 592.713 358.309 582.378 365.743C570.829 372.826 558.163 379.513 545.107 385.979C532.988 392.718 522.216 399.475 513.3 406.388C506.843 413.977 502.693 421.816 500.784 429.851C501.241 438.51 503.321 447.138 506.539 455.558C510.786 464.18 515.065 472.237 518.82 479.544C522.975 489.599 521.101 503.659 514.273 507.577C507.487 509.45 499.041 510.447 489.209 510.779C478.25 511.084 466.36 511.047 453.833 510.898C440.801 511.212 427.532 511.768 414.221 512.755C400.848 514.62 387.625 517.163 374.643 520.482C361.801 524.846 349.242 530.009 336.945 535.918C324.86 542.666 313.026 549.905 301.426 557.416C290.094 565.195 278.982 572.751 268.139 579.751C257.637 586.193 247.44 591.502 237.579 595.318C228.162 597.852 219.134 598.465 210.517 596.997C202.385 593.899 194.641 588.677 187.277 581.4C180.284 572.844 173.688 562.919 167.449 552.01C161.318 540.808 155.361 529.335 149.54 517.973C143.6 507.269 137.686 497.219 131.812 488.018C125.709 480.066 119.65 473.156 113.699 467.317C104.544 460.981 87.3196 453.765 79.6169 451.868C66.1876 448.766 49.9959 438.357 45.505 431.65C42.2208 426.309 39.0347 420.051 35.8912 412.945C32.3001 405.279 28.7261 396.852 25.1735 387.773C21.291 378.264 17.5493 368.27 14.0519 357.927C10.5348 347.364 7.50904 336.632 5.09253 325.862C3.07993 315.1 1.93003 304.458 1.7813 294.033C2.30418 283.768 3.93681 273.799 6.68848 264.18C10.0769 254.756 14.4598 245.657 19.714 236.894C25.222 228.204 31.1324 219.942 37.2465 212.05C43.0659 204.061 48.7864 196.33 54.2901 188.811C59.1775 181.066 63.7616 173.46 68.0595 165.974C71.7431 158.215 75.2779 150.557 78.7524 143.024C81.9406 135.241 85.3334 127.577 89.0666 120.059C92.9046 112.345 97.3417 104.792 102.45 97.3981C107.987 89.8889 114.334 82.5547 121.489 75.4066C129.197 68.2038 137.695 61.2059 146.915 54.4411C156.627 47.7113 166.929 41.2598 177.688 35.1682C188.737 29.2324 200.087 23.7426 211.601 18.8026C223.171 14.2021 234.748 10.2848 246.223 7.12771C257.567 4.50664 268.725 2.77639 279.594 2.00288C290.255 1.86293 300.614 2.72384 310.657 4.59344C320.493 7.01297 330.055 10.3341 339.343 14.5204C348.535 18.9542 357.559 24.0089 366.44 29.5603C375.368 34.9461 384.245 40.5084 393.107 46.126" stroke="#5A42ED" stroke-width="2" stroke-linecap="round" stroke-dasharray="10 7"/>
</svg>
