<svg width="406" height="427" viewBox="0 0 406 427" fill="none" xmlns="http://www.w3.org/2000/svg">
<path opacity="0.98" d="M288.258 74.1406C294.655 85.3369 300.867 95.9339 307.007 105.817C314.372 114.615 321.66 123.098 328.842 131.541C337.078 139.698 345.126 148.668 352.975 158.794C361.602 169.62 369.937 182.186 377.851 196.463C385.976 211.574 393.147 228.002 398.853 244.973C403.392 261.492 405.292 277.175 403.851 290.901C399.706 302.412 391.545 310.981 379.452 316.257C365.188 319.565 348.359 320.696 330.235 320.605C313.235 321.616 298.08 323.616 285.476 327.232C275.825 333.858 268.489 342.126 262.748 351.459C258.365 362.622 253.752 373.544 248.001 383.544C241.268 393.609 232.155 402.049 220.548 408.783C207.139 414.958 191.392 419.514 173.966 422.601C155.582 425.055 136.607 426.012 118.072 425.373C100.183 423.517 83.9461 419.549 70.253 413.184C58.3933 404.901 49.5777 393.907 44.0346 380.298C40.0436 365.089 38.665 348.71 39.0858 331.923C39.3276 315.106 40.1513 298.81 41 283.425C40.3632 268.963 39.1836 255.498 37.3872 242.909C33.827 231.051 29.7826 219.507 25.5027 207.989C20.0142 196.638 14.8465 184.877 10.4629 172.71C5.87769 160.7 2.86651 148.496 1.92872 136.491C1.91679 125.297 4.64134 114.824 10.3823 105.459C17.4921 97.339 27.5615 90.3358 40.3543 84.3782C53.6392 78.9033 68.0985 73.9042 83.0054 68.9901C97.0432 63.256 110.931 57.0847 124.416 50.5192C136.632 42.8695 148.57 35.1251 160.236 27.7245C171.038 19.9912 181.89 13.3215 192.693 8.21197C203.006 3.73272 213.3 1.39007 223.268 1.43074C232.767 2.62137 241.772 6.31882 249.947 12.4532C257.709 19.534 264.686 28.645 270.794 39.3974C277.025 50.238 282.802 61.9684 288.258 74.1243" stroke="#5A42ED" stroke-width="2" stroke-linecap="round" stroke-dasharray="10 7"/>
</svg>
