<svg width="534" height="520" viewBox="0 0 534 520" fill="none" xmlns="http://www.w3.org/2000/svg">
<path opacity="0.63" d="M369.11 68.381C375.415 74.2645 381.442 79.8159 387.167 84.9831C396.028 91.6935 412.557 102.334 420.039 106.49C433.508 113.071 449.459 123.648 453.462 128.476C457.524 134.431 465.698 150.491 470.393 160.895C474.161 168.753 478.244 177.433 482.705 186.89C487.719 196.944 493.066 207.687 498.664 218.982C504.539 230.66 510.387 242.677 516.001 254.841C521.296 266.991 525.897 278.975 529.523 290.566C532.114 301.704 533.27 312.162 532.747 321.742C530.725 330.568 526.822 338.382 521.038 345.132C513.827 351.14 505.004 356.216 494.825 360.419C484.018 364.31 472.568 367.724 460.931 370.829C449.886 374.266 439.723 377.76 430.767 381.46C423.303 385.949 417.37 390.819 412.973 396.058C409.463 405.323 409.601 425.433 411.578 435.432C413.686 445.189 414.076 461.195 411.19 467.117C405.604 471.874 386.62 477.992 373.594 479.971C363.685 481.319 352.967 482.597 341.573 483.942C329.588 485.633 317.145 487.522 304.39 489.674C291.326 492.233 278.135 495.051 264.969 498.09C251.744 501.384 238.692 504.72 225.95 507.987C213.397 511.147 201.292 513.936 189.759 516.17C178.642 517.873 168.21 518.691 158.574 518.465C149.496 517.324 141.267 514.919 133.938 511.158C127.189 506.367 121.309 500.203 116.28 492.723C111.707 484.419 107.927 475.25 104.822 465.479C101.88 455.405 99.408 445.113 97.295 434.832C95.0351 424.824 92.966 415.141 91.0355 405.975C88.731 397.457 86.4734 389.603 84.2355 382.464C80.1981 373.287 71.4752 359.241 66.8867 353.876C61.7361 349.436 51.3766 340.953 46.2088 336.23C40.6268 330.918 29.6306 317.266 24.2833 308.754C20.5628 302.552 17.0849 295.803 13.9095 288.563C10.6896 281.092 7.90762 273.242 5.65305 265.116C3.61087 256.934 2.24552 248.634 1.66209 240.31C1.52686 232.124 2.30274 224.063 4.05979 216.19C6.37946 208.581 9.69357 201.232 14.006 194.187C18.8094 187.392 24.4734 180.864 30.9218 174.576C37.5725 168.397 44.6162 162.482 51.8647 156.767C58.9465 150.951 66.0214 145.195 73.0084 139.458C79.5409 133.45 85.8851 127.38 92.0153 121.247C97.6366 114.775 103.08 108.22 108.408 101.616C113.353 94.7275 118.303 87.8292 123.35 80.9698C128.247 73.9518 133.393 67.0542 138.852 60.351C144.404 53.6198 150.379 47.1686 156.807 41.0392C163.463 35.0452 170.615 29.4618 178.22 24.3443C186.075 19.4912 194.34 15.1849 202.942 11.4643C211.728 8.12962 220.746 5.45459 229.887 3.49764C239.085 1.98959 248.303 1.24791 257.409 1.29441C266.464 1.8482 275.33 3.21355 283.93 5.38814C292.388 8.04672 300.55 11.4726 308.345 15.6275C316.018 20.1334 323.352 25.2666 330.326 30.9491C337.271 36.7593 343.927 42.936 350.286 49.3968C356.764 55.6864 363.034 62.0469 369.1 68.3755" stroke="#5A42ED" stroke-width="2" stroke-linecap="round"/>
</svg>
